<svg width="16" height="17" viewBox="0 0 16 17" fill="none" xmlns="http://www.w3.org/2000/svg">
<g clip-path="url(#clip0_656_682)">
<path d="M1.00631 4.55265C1.13763 4.55248 1.26769 4.57831 1.38898 4.62865C1.51027 4.679 1.62039 4.75286 1.71298 4.84598L6.82831 9.96065C6.98308 10.1155 7.16683 10.2383 7.36907 10.3221C7.57131 10.4058 7.78807 10.449 8.00698 10.449C8.22589 10.449 8.44265 10.4058 8.64489 10.3221C8.84713 10.2383 9.03088 10.1155 9.18565 9.96065L14.293 4.85265C14.3852 4.75714 14.4956 4.68096 14.6176 4.62855C14.7396 4.57614 14.8708 4.54855 15.0036 4.5474C15.1364 4.54625 15.268 4.57155 15.3909 4.62183C15.5138 4.67211 15.6255 4.74636 15.7194 4.84026C15.8133 4.93415 15.8875 5.0458 15.9378 5.1687C15.9881 5.29159 16.0134 5.42327 16.0122 5.55605C16.0111 5.68883 15.9835 5.82005 15.9311 5.94206C15.8787 6.06406 15.8025 6.1744 15.707 6.26665L10.5996 11.3747C9.91159 12.0614 8.97914 12.4472 8.00698 12.4472C7.03482 12.4472 6.10237 12.0614 5.41431 11.3747L0.29898 6.25998C0.159036 6.12013 0.0637221 5.94191 0.0250994 5.74787C-0.0135234 5.55383 0.0062807 5.35269 0.0820057 5.16991C0.157731 4.98712 0.285973 4.83091 0.450506 4.72104C0.615038 4.61116 0.808466 4.55256 1.00631 4.55265Z" fill="white"/>
</g>
<defs>
<clipPath id="clip0_656_682">
<rect width="16" height="16" fill="white" transform="translate(0 0.5)"/>
</clipPath>
</defs>
</svg>
