<svg width="14" height="7" viewBox="0 0 14 7" fill="none" xmlns="http://www.w3.org/2000/svg">
<path d="M12.8843 0.545004C12.7682 0.428846 12.6304 0.3367 12.4786 0.273831C12.3269 0.210963 12.1643 0.178604 12.0001 0.178604C11.8359 0.178604 11.6733 0.210963 11.5216 0.273831C11.3699 0.3367 11.232 0.428846 11.1159 0.545004L7.29427 4.36584C7.21614 4.44395 7.11017 4.48783 6.99969 4.48783C6.8892 4.48783 6.78324 4.44395 6.70511 4.36584L2.88427 0.545004C2.64989 0.310508 2.33195 0.178726 2.0004 0.178648C1.66885 0.17857 1.35085 0.310202 1.11636 0.544587C0.88186 0.778972 0.750078 1.09691 0.75 1.42846C0.749922 1.76001 0.881554 2.07801 1.11594 2.3125L4.93761 6.13417C5.20845 6.40504 5.52999 6.61991 5.88388 6.7665C6.23776 6.9131 6.61706 6.98855 7.00011 6.98855C7.38315 6.98855 7.76245 6.9131 8.11633 6.7665C8.47022 6.61991 8.79177 6.40504 9.06261 6.13417L12.8843 2.3125C13.1186 2.07809 13.2503 1.76021 13.2503 1.42875C13.2503 1.0973 13.1186 0.779414 12.8843 0.545004Z" fill="#99A1AA"/>
</svg>
