<svg width="12" height="12" viewBox="0 0 12 12" fill="none" xmlns="http://www.w3.org/2000/svg">
<path d="M11.0018 0.99997C10.8455 0.843744 10.6336 0.755981 10.4126 0.755981C10.1917 0.755981 9.97974 0.843744 9.82347 0.99997L6.0018 4.82164L2.18013 0.99997C2.02386 0.843744 1.81194 0.755981 1.59097 0.755981C1.37 0.755981 1.15807 0.843744 1.0018 0.99997C0.845575 1.15624 0.757812 1.36817 0.757812 1.58914C0.757812 1.81011 0.845575 2.02203 1.0018 2.1783L4.82347 5.99997L1.0018 9.82164C0.845575 9.97791 0.757813 10.1898 0.757812 10.4108C0.757813 10.6318 0.845575 10.8437 1.0018 11C1.15807 11.1562 1.37 11.244 1.59097 11.244C1.81194 11.244 2.02386 11.1562 2.18013 11L6.0018 7.1783L9.82347 11C9.97974 11.1562 10.1917 11.244 10.4126 11.244C10.6336 11.244 10.8455 11.1562 11.0018 11C11.158 10.8437 11.2458 10.6318 11.2458 10.4108C11.2458 10.1898 11.158 9.97791 11.0018 9.82164L7.18013 5.99997L11.0018 2.1783C11.158 2.02203 11.2458 1.81011 11.2458 1.58914C11.2458 1.36817 11.158 1.15624 11.0018 0.99997Z" fill="#99A1AA"/>
</svg>
