<svg width="21" height="20" viewBox="0 0 21 20" fill="none" xmlns="http://www.w3.org/2000/svg">
<path d="M4.20832 0H6.70832C8.54926 0 10.0416 1.49238 10.0416 3.33332V5.83332C10.0416 7.67426 8.54926 9.16664 6.70832 9.16664H4.20832C2.36738 9.16668 0.875 7.6743 0.875 5.83332V3.33332C0.875 1.49238 2.36738 0 4.20832 0Z" fill="white"/>
<path d="M15.0423 0H17.5423C19.3832 0 20.8756 1.49238 20.8756 3.33332V5.83332C20.8756 7.67426 19.3832 9.16664 17.5423 9.16664H15.0423C13.2014 9.16664 11.709 7.67426 11.709 5.83332V3.33332C11.7089 1.49238 13.2013 0 15.0423 0Z" fill="white"/>
<path d="M4.20832 10.8333H6.70832C8.54926 10.8333 10.0416 12.3257 10.0416 14.1666V16.6666C10.0416 18.5076 8.54926 20 6.70832 20H4.20832C2.36738 20 0.875 18.5076 0.875 16.6667V14.1667C0.875 12.3257 2.36738 10.8333 4.20832 10.8333Z" fill="white"/>
<path d="M15.0423 10.8333H17.5423C19.3832 10.8333 20.8756 12.3257 20.8756 14.1666V16.6666C20.8756 18.5076 19.3832 20 17.5423 20H15.0423C13.2014 20 11.709 18.5076 11.709 16.6667V14.1667C11.7089 12.3257 13.2013 10.8333 15.0423 10.8333Z" fill="white"/>
</svg>
