<svg width="21" height="20" viewBox="0 0 21 20" fill="none" xmlns="http://www.w3.org/2000/svg">
<g clip-path="url(#clip0_656_165)">
<path d="M7.45779 7.49745C6.67862 7.49745 5.94612 7.19412 5.39529 6.64328C4.25862 5.50662 4.25862 3.65495 5.39529 2.51828L7.45779 0.501617L9.51362 2.51162C10.6578 3.65495 10.6578 5.50578 9.52029 6.64328C8.96945 7.19412 8.23695 7.49745 7.45779 7.49745ZM19.6678 7.23412C19.2386 6.84328 18.6795 6.64078 18.1028 6.66912C17.522 6.69578 16.987 6.94745 16.6078 7.36495L13.657 10.4791C13.6836 10.6541 13.7111 10.8291 13.7111 11.0108C13.7111 12.7466 12.4153 14.2408 10.697 14.4858L7.16279 14.9908L6.92695 13.3416L10.4611 12.8366C11.3645 12.7075 12.0445 11.9225 12.0445 11.0108C12.0445 9.99412 11.217 9.16662 10.2003 9.16662H2.87695C1.49862 9.16662 0.376953 10.2883 0.376953 11.6666V17.5C0.376953 18.8783 1.49862 20 2.87695 20H10.9303L19.8253 10.2875C20.6153 9.40245 20.5436 8.03245 19.6678 7.23412Z" fill="#99A1AA"/>
</g>
<defs>
<clipPath id="clip0_656_165">
<rect width="20" height="20" fill="white" transform="translate(0.375)"/>
</clipPath>
</defs>
</svg>
