<svg width="28" height="28" viewBox="0 0 28 28" fill="none" xmlns="http://www.w3.org/2000/svg">
<g clipPath="url(#clip0_656_167)">
<path d="M9.91707 10.4964C8.82624 10.4964 7.80074 10.0718 7.02957 9.3006C5.43824 7.70927 5.43824 5.11694 7.02957 3.5256L9.91707 0.702271L12.7952 3.51627C14.3971 5.11694 14.3971 7.7081 12.8046 9.3006C12.0334 10.0718 11.0079 10.4964 9.91707 10.4964ZM27.0111 10.1278C26.4102 9.5806 25.6274 9.2971 24.8201 9.33677C24.0069 9.3741 23.2579 9.72644 22.7271 10.3109L18.5959 14.6708C18.6332 14.9158 18.6717 15.1608 18.6717 15.4151C18.6717 17.8453 16.8576 19.9371 14.4519 20.2801L9.50407 20.9871L9.17391 18.6783L14.1217 17.9713C15.3864 17.7904 16.3384 16.6914 16.3384 15.4151C16.3384 13.9918 15.1799 12.8333 13.7566 12.8333H3.50391C1.57424 12.8333 0.00390625 14.4036 0.00390625 16.3333V24.4999C0.00390625 26.4296 1.57424 27.9999 3.50391 27.9999H14.7786L27.2316 14.4024C28.3376 13.1634 28.2372 11.2454 27.0111 10.1278Z" fill="url(#paint0_linear_656_167)"/>
</g>
<defs>
<linearGradient id="paint0_linear_656_167" x1="32.0379" y1="-3.13167" x2="-8.85874" y2="25.2463" gradientUnits="userSpaceOnUse">
<stop stopColor="#FFC227"/>
<stop offset="0.498619" stopColor="#FF8CDF"/>
<stop offset="1" stopColor="#4EFCF9"/>
</linearGradient>
<clipPath id="clip0_656_167">
<rect width="28" height="28" fill="white"/>
</clipPath>
</defs>
</svg>
