<svg width="16" height="17" viewBox="0 0 16 17" fill="none" xmlns="http://www.w3.org/2000/svg">
<g clip-path="url(#clip0_656_617)">
<path d="M11.4462 16.5C11.3584 16.5005 11.2715 16.4837 11.1902 16.4505C11.109 16.4174 11.0351 16.3685 10.9728 16.3067L5.52617 10.86C5.21575 10.5504 4.96946 10.1826 4.80142 9.77759C4.63337 9.37262 4.54687 8.93848 4.54688 8.50003C4.54688 8.06158 4.63337 7.62744 4.80142 7.22248C4.96946 6.81751 5.21575 6.44967 5.52617 6.14003L10.9728 0.693375C11.035 0.631216 11.1088 0.581909 11.19 0.548269C11.2712 0.514629 11.3583 0.497314 11.4462 0.497314C11.5341 0.497314 11.6211 0.514629 11.7023 0.548269C11.7835 0.581909 11.8573 0.631216 11.9195 0.693375C11.9817 0.755534 12.031 0.829328 12.0646 0.910542C12.0982 0.991757 12.1156 1.0788 12.1156 1.16671C12.1156 1.25461 12.0982 1.34166 12.0646 1.42287C12.031 1.50409 11.9817 1.57788 11.9195 1.64004L6.47283 7.0867C6.0983 7.4617 5.88793 7.97003 5.88793 8.50003C5.88793 9.03003 6.0983 9.53836 6.47283 9.91336L11.9195 15.36C11.982 15.422 12.0316 15.4957 12.0654 15.577C12.0993 15.6582 12.1167 15.7453 12.1167 15.8334C12.1167 15.9214 12.0993 16.0085 12.0654 16.0897C12.0316 16.171 11.982 16.2447 11.9195 16.3067C11.8572 16.3685 11.7833 16.4174 11.7021 16.4505C11.6209 16.4837 11.5339 16.5005 11.4462 16.5Z" fill="#99A1AA"/>
</g>
<defs>
<clipPath id="clip0_656_617">
<rect width="16" height="16" fill="white" transform="translate(0 0.5)"/>
</clipPath>
</defs>
</svg>
