<svg width="28" height="28" viewBox="0 0 28 28" fill="none" xmlns="http://www.w3.org/2000/svg">
<g clipPath="url(#clip0_656_182)">
<path d="M9.33333 4.22333C9.33333 2.53167 10.71 1.16667 12.39 1.16667H12.8333C12.8333 0.525 13.3583 0 14 0C14.6417 0 15.1667 0.525 15.1667 1.16667H15.4817C16.73 1.16667 17.885 1.83167 18.515 2.91667C18.8417 3.47667 18.6433 4.18833 18.095 4.515C17.535 4.84167 16.8233 4.64333 16.4967 4.095C16.2867 3.73333 15.9017 3.51167 15.4817 3.51167H12.4017C12.005 3.51167 11.6783 3.83833 11.6783 4.235C11.6783 4.59667 11.935 4.9 12.285 4.95833L16.1117 5.6C17.5933 5.845 18.6667 7.11667 18.6667 8.62167C18.6667 10.3133 17.29 11.6783 15.61 11.6783H15.1667C15.1667 12.32 14.6417 12.845 14 12.845C13.3583 12.845 12.8333 12.32 12.8333 11.6783H12.5183C11.27 11.6783 10.115 11.0133 9.485 9.92833C9.15833 9.36833 9.35667 8.65667 9.905 8.33C10.465 8.00333 11.1767 8.20167 11.5033 8.75C11.7133 9.11167 12.0983 9.33333 12.5183 9.33333H15.5983C15.995 9.33333 16.3217 9.00667 16.3217 8.61C16.3217 8.24833 16.065 7.945 15.715 7.88667L11.8883 7.245C10.4067 7 9.33333 5.72833 9.33333 4.22333ZM11.3283 14.6417C10.15 13.5567 8.225 13.7667 7.35 15.225C6.77833 16.17 6.94167 17.3833 7.64167 18.2467L9.73 20.93C10.1267 21.4433 10.0333 22.1667 9.52 22.5633C9.00667 22.96 8.28333 22.8667 7.88667 22.3533L5.79833 19.67C4.49167 18.06 4.305 15.7733 5.355 14.0117C5.495 13.7783 5.67 13.5567 5.845 13.3467V6.53333C5.845 5.005 4.74833 3.61667 3.23167 3.465C1.47 3.29 0 4.66667 0 6.37V18.6783C0 21.1633 0.991667 23.555 2.765 25.305L4.85333 27.3817C5.285 27.7783 5.85667 28 6.44 28H15.1667C15.8083 28 16.3333 27.475 16.3333 26.8333V22.3767C16.3333 20.44 15.54 18.5967 14.1283 17.2783L11.3283 14.6417ZM24.78 3.465C23.2633 3.61667 22.1667 5.005 22.1667 6.53333V13.3467C22.3417 13.5567 22.505 13.7667 22.6567 14.0117C23.7183 15.7617 23.52 18.06 22.2133 19.67L18.6667 23.1933V26.8217C18.6667 27.23 18.585 27.6267 18.4567 27.9883H21.56C22.1433 27.9883 22.715 27.7667 23.1467 27.37L25.235 25.305C27.0083 23.555 28 21.1633 28 18.6783V6.37C28 4.655 26.53 3.29 24.78 3.465ZM20.65 15.2133C19.775 13.755 17.85 13.545 16.6717 14.63L15.7033 15.54L15.7267 15.5633C17.0567 16.8117 17.9667 18.4333 18.3867 20.195L20.3583 18.235C21.0583 17.3833 21.21 16.1583 20.65 15.2133Z" fill="url(#paint0_linear_656_182)"/>
</g>
<defs>
<linearGradient id="paint0_linear_656_182" x1="32.0385" y1="-3.93258" x2="-9.52955" y2="24.1916" gradientUnits="userSpaceOnUse">
<stop stopColor="#FFC227"/>
<stop offset="0.498619" stopColor="#FF8CDF"/>
<stop offset="1" stopColor="#4EFCF9"/>
</linearGradient>
<clipPath id="clip0_656_182">
<rect width="28" height="28" fill="white"/>
</clipPath>
</defs>
</svg>
