<svg width="20" height="21" viewBox="0 0 20 21" fill="none" xmlns="http://www.w3.org/2000/svg">
<g clip-path="url(#clip0_631_365)">
<path d="M5.83333 18.8317H4.16667C3.50363 18.8317 2.86774 18.5683 2.3989 18.0995C1.93006 17.6306 1.66667 16.9947 1.66667 16.3317V4.66502C1.66667 4.00198 1.93006 3.36609 2.3989 2.89725C2.86774 2.42841 3.50363 2.16502 4.16667 2.16502H5.83333C6.05435 2.16502 6.26631 2.07722 6.42259 1.92094C6.57887 1.76466 6.66667 1.5527 6.66667 1.33169C6.66667 1.11067 6.57887 0.89871 6.42259 0.74243C6.26631 0.586149 6.05435 0.498352 5.83333 0.498352H4.16667C3.062 0.499675 2.00296 0.939087 1.22185 1.7202C0.440735 2.50132 0.00132321 3.56036 0 4.66502L0 16.3317C0.00132321 17.4363 0.440735 18.4954 1.22185 19.2765C2.00296 20.0576 3.062 20.497 4.16667 20.4984H5.83333C6.05435 20.4984 6.26631 20.4106 6.42259 20.2543C6.57887 20.098 6.66667 19.886 6.66667 19.665C6.66667 19.444 6.57887 19.232 6.42259 19.0758C6.26631 18.9195 6.05435 18.8317 5.83333 18.8317Z" fill="white"/>
<path d="M19.1666 9.66521L6.01905 9.69187C6.09214 9.55612 6.18356 9.43106 6.29072 9.32021L9.52322 6.08771C9.60281 6.01084 9.6663 5.91888 9.70997 5.81721C9.75365 5.71554 9.77663 5.60619 9.7776 5.49554C9.77856 5.38489 9.75747 5.27516 9.71557 5.17275C9.67367 5.07033 9.61179 4.97729 9.53355 4.89905C9.45531 4.8208 9.36226 4.75892 9.25985 4.71702C9.15744 4.67512 9.0477 4.65404 8.93705 4.655C8.8264 4.65596 8.71705 4.67895 8.61538 4.72262C8.51371 4.7663 8.42176 4.82978 8.34489 4.90938L5.11072 8.14187C4.48582 8.76697 4.13477 9.61466 4.13477 10.4985C4.13477 11.3824 4.48582 12.2301 5.11072 12.8552L8.34322 16.0877C8.42009 16.1673 8.51205 16.2308 8.61372 16.2745C8.71539 16.3181 8.82474 16.3411 8.93539 16.3421C9.04604 16.343 9.15577 16.322 9.25818 16.2801C9.3606 16.2382 9.45364 16.1763 9.53188 16.098C9.61013 16.0198 9.672 15.9267 9.7139 15.8243C9.75581 15.7219 9.77689 15.6122 9.77593 15.5015C9.77497 15.3909 9.75198 15.2815 9.70831 15.1799C9.66463 15.0782 9.60115 14.9862 9.52155 14.9094L6.28905 11.6769C6.19579 11.5808 6.11438 11.474 6.04655 11.3585L19.1666 11.3319C19.3876 11.3319 19.5995 11.2441 19.7558 11.0878C19.9121 10.9315 19.9999 10.7196 19.9999 10.4985C19.9999 10.2775 19.9121 10.0656 19.7558 9.90929C19.5995 9.75301 19.3876 9.66521 19.1666 9.66521Z" fill="white"/>
</g>
<defs>
<clipPath id="clip0_631_365">
<rect width="20" height="20" fill="white" transform="translate(0 0.498352)"/>
</clipPath>
</defs>
</svg>
