<svg width="20" height="20" viewBox="0 0 20 20" fill="none" xmlns="http://www.w3.org/2000/svg">
<path d="M19.1665 15.0692C19.1665 17.2192 17.8757 19.12 15.8773 19.9125C15.7265 19.9725 15.5707 20.0008 15.4173 20.0008C14.9198 20.0008 14.449 19.7017 14.2548 19.2108C14.0007 18.5692 14.3148 17.8425 14.9565 17.5883C15.9957 17.1767 16.6673 16.1875 16.6673 15.07C16.6673 11.2217 13.054 6.6675 10.0007 6.6675C6.94732 6.6675 3.33315 11.2208 3.33315 15.0692C3.33315 16.1875 4.00482 17.1758 5.04398 17.5875C5.68565 17.8425 5.99982 18.5683 5.74565 19.21C5.49065 19.8525 4.76315 20.165 4.12315 19.9117C2.12482 19.1192 0.833985 17.2183 0.833985 15.0683C0.833151 10.7467 4.32482 5.38 8.55648 4.34417C7.59148 3.6825 6.40982 2.6625 5.90232 1.38583C5.63732 0.72 6.16898 0 6.88482 0H13.114C13.8307 0 14.3615 0.72 14.0965 1.38583C13.589 2.6625 12.4065 3.68333 11.4423 4.34417C15.674 5.38 19.1665 10.7467 19.1665 15.0692ZM11.454 13.4025L9.47398 12.6108C9.28732 12.5358 9.16648 12.3575 9.16648 12.1567C9.16648 11.8867 9.38565 11.6675 9.65565 11.6675H10.6398C10.7907 11.6675 10.9257 11.7458 11.0015 11.8767C11.3465 12.4742 12.1115 12.6783 12.709 12.3325C13.3065 11.9867 13.5107 11.2217 13.1648 10.625C12.739 9.88917 12.014 9.38167 11.1957 9.22167C11.0407 8.70833 10.564 8.33417 9.99898 8.33417C9.40732 8.33417 8.91232 8.745 8.78232 9.2975C7.55815 9.67167 6.66565 10.8117 6.66565 12.1567C6.66565 13.3867 7.40315 14.4758 8.54482 14.9325L10.5248 15.7242C10.7115 15.7992 10.8323 15.9775 10.8323 16.1783C10.8323 16.4483 10.6132 16.6675 10.3432 16.6675H9.35898C9.20815 16.6675 9.07315 16.5892 8.99732 16.4592C8.65232 15.8617 7.88648 15.6583 7.28982 16.0033C6.69232 16.3492 6.48815 17.1142 6.83398 17.7108C7.25898 18.4467 7.98482 18.9533 8.80315 19.1133C8.95815 19.6267 9.43482 20.0008 9.99982 20.0008C10.5915 20.0008 11.0865 19.59 11.2165 19.0375C12.4407 18.6633 13.3332 17.5233 13.3332 16.1783C13.3332 14.9483 12.5957 13.8592 11.454 13.4025Z" fill="url(#paint0_linear_656_1688)"/>
<defs>
<linearGradient id="paint0_linear_656_1688" x1="21.8106" y1="-2.80911" x2="-6.84382" y2="14.9608" gradientUnits="userSpaceOnUse">
<stop stop-color="#FFC227"/>
<stop offset="0.498619" stop-color="#FF8CDF"/>
<stop offset="1" stop-color="#4EFCF9"/>
</linearGradient>
</defs>
</svg>
