<svg width="30" height="30" viewBox="0 0 30 30" fill="none" xmlns="http://www.w3.org/2000/svg">
<path d="M25.073 21L25.198 21.125C25.4817 21.4112 25.8333 21.621 26.2199 21.7348C26.6065 21.8487 27.0156 21.8629 27.4092 21.7763C27.7965 21.695 28.157 21.5176 28.4578 21.2605C28.7586 21.0035 28.9899 20.6749 29.1305 20.305C29.8206 18.4929 30.1505 16.5635 30.1017 14.625C29.961 10.8175 28.395 7.20185 25.714 4.49467C23.0329 1.78748 19.4327 0.186395 15.6267 0.0087548C13.6142 -0.0612224 11.6082 0.274742 9.72831 0.99662C7.84841 1.7185 6.13311 2.81151 4.68467 4.21049C3.23624 5.60946 2.08432 7.28577 1.29759 9.13946C0.510857 10.9931 0.105427 12.9863 0.105469 15C0.1101 18.9768 1.69194 22.7894 4.50398 25.6015C7.31602 28.4135 11.1286 29.9954 15.1055 30C15.528 30 15.943 29.9725 16.3555 29.9375C16.6685 29.9111 16.9601 29.7679 17.1722 29.5362C17.3844 29.3046 17.5016 29.0016 17.5005 28.6875L17.4605 24.2025C17.4503 23.3162 17.7046 22.447 18.1908 21.7059C18.6769 20.9648 19.373 20.3854 20.1899 20.0417C21.0069 19.698 21.9078 19.6056 22.7776 19.7763C23.6473 19.947 24.4465 20.373 25.073 21ZM21.3955 10.0625C21.7539 9.9674 22.1324 9.98071 22.4833 10.1007C22.8341 10.2208 23.1415 10.4421 23.3666 10.7369C23.5916 11.0316 23.7242 11.3864 23.7476 11.7565C23.771 12.1266 23.6842 12.4953 23.498 12.816C23.3119 13.1367 23.0348 13.395 22.7019 13.5583C22.3689 13.7215 21.9951 13.7824 21.6275 13.7332C21.26 13.684 20.9153 13.5269 20.637 13.2818C20.3588 13.0367 20.1594 12.7146 20.0642 12.3563C20.001 12.1182 19.9853 11.8701 20.0179 11.626C20.0506 11.3819 20.1311 11.1466 20.2547 10.9336C20.3783 10.7206 20.5427 10.534 20.7384 10.3846C20.9342 10.2351 21.1574 10.1257 21.3955 10.0625ZM9.85797 21.1875C9.49956 21.2826 9.12099 21.2693 8.77015 21.1493C8.4193 21.0292 8.11192 20.8079 7.88687 20.5131C7.66183 20.2184 7.52922 19.8636 7.50582 19.4935C7.48243 19.1235 7.56929 18.7547 7.75542 18.434C7.94156 18.1133 8.21861 17.855 8.55155 17.6917C8.88449 17.5285 9.25836 17.4676 9.6259 17.5168C9.99343 17.566 10.3381 17.7231 10.6164 17.9682C10.8947 18.2133 11.094 18.5354 11.1892 18.8938C11.2525 19.1318 11.2682 19.3799 11.2355 19.624C11.2028 19.8681 11.1224 20.1034 10.9988 20.3164C10.8751 20.5294 10.7108 20.716 10.515 20.8654C10.3193 21.0149 10.096 21.1243 9.85797 21.1875ZM9.85797 13.6875C9.49956 13.7826 9.12099 13.7693 8.77015 13.6493C8.4193 13.5292 8.11192 13.3079 7.88687 13.0131C7.66183 12.7184 7.52922 12.3636 7.50582 11.9935C7.48243 11.6235 7.56929 11.2547 7.75542 10.934C7.94156 10.6133 8.21861 10.355 8.55155 10.1917C8.88449 10.0285 9.25836 9.96759 9.6259 10.0168C9.99343 10.066 10.3381 10.2231 10.6164 10.4682C10.8947 10.7133 11.094 11.0354 11.1892 11.3938C11.2525 11.6318 11.2682 11.8799 11.2355 12.124C11.2028 12.3681 11.1224 12.6034 10.9988 12.8164C10.8751 13.0294 10.7108 13.216 10.515 13.3654C10.3193 13.5149 10.096 13.6243 9.85797 13.6875ZM16.108 9.9375C15.7496 10.0326 15.371 10.0193 15.0201 9.89927C14.6693 9.77923 14.3619 9.55786 14.1369 9.26315C13.9118 8.96843 13.7792 8.6136 13.7558 8.24353C13.7324 7.87345 13.8193 7.50475 14.0054 7.18404C14.1916 6.86332 14.4686 6.605 14.8015 6.44174C15.1345 6.27847 15.5084 6.21759 15.8759 6.2668C16.2434 6.31601 16.5881 6.47309 16.8664 6.71818C17.1447 6.96327 17.344 7.28537 17.4392 7.64375C17.5025 7.88178 17.5182 8.12992 17.4855 8.37403C17.4528 8.61813 17.3724 8.8534 17.2488 9.0664C17.1251 9.27941 16.9608 9.46597 16.765 9.61544C16.5693 9.7649 16.346 9.87434 16.108 9.9375Z" fill="white"/>
</svg>
