<svg width="28" height="28" viewBox="0 0 28 28" fill="none" xmlns="http://www.w3.org/2000/svg">
<g clip-path="url(#clip0_656_154)">
<path d="M23.4007 19.6L23.5173 19.7167C23.7822 19.9838 24.1103 20.1796 24.4711 20.2858C24.832 20.3921 25.2138 20.4054 25.5812 20.3245C25.9426 20.2486 26.2791 20.0831 26.5598 19.8432C26.8406 19.6032 27.0565 19.2965 27.1877 18.9513C27.8318 17.26 28.1397 15.4592 28.0942 13.65C27.9629 10.0963 26.5012 6.72171 23.9989 4.195C21.4966 1.6683 18.1364 0.173949 14.5842 0.0081508C12.7058 -0.0571612 10.8335 0.256406 9.07897 0.930158C7.3244 1.60391 5.72346 2.62405 4.37158 3.92977C3.01971 5.23548 1.94458 6.80003 1.2103 8.53014C0.476018 10.2603 0.0976175 12.1205 0.0976563 14C0.101979 17.7117 1.57836 21.2701 4.20294 23.8947C6.82751 26.5193 10.386 27.9957 14.0977 28C14.492 28 14.8793 27.9743 15.2643 27.9417C15.5565 27.917 15.8286 27.7833 16.0266 27.5671C16.2247 27.351 16.334 27.0682 16.333 26.775L16.2957 22.589C16.2862 21.7618 16.5235 20.9505 16.9773 20.2588C17.431 19.5671 18.0806 19.0264 18.8432 18.7056C19.6057 18.3848 20.4465 18.2985 21.2583 18.4579C22.0701 18.6172 22.8159 19.0148 23.4007 19.6ZM19.9683 9.39165C20.3028 9.30289 20.6562 9.31531 20.9836 9.42734C21.3111 9.53937 21.598 9.74598 21.808 10.0211C22.0181 10.2961 22.1418 10.6273 22.1637 10.9727C22.1855 11.3181 22.1044 11.6622 21.9307 11.9616C21.757 12.2609 21.4984 12.502 21.1876 12.6544C20.8769 12.8067 20.528 12.8636 20.1849 12.8176C19.8419 12.7717 19.5202 12.6251 19.2605 12.3964C19.0007 12.1676 18.8147 11.867 18.7258 11.5325C18.6668 11.3103 18.6521 11.0787 18.6826 10.8509C18.7131 10.6231 18.7882 10.4035 18.9036 10.2047C19.019 10.0059 19.1724 9.83175 19.3551 9.69225C19.5378 9.55275 19.7461 9.4506 19.9683 9.39165ZM9.19999 19.775C8.86547 19.8637 8.51215 19.8513 8.18469 19.7393C7.85723 19.6273 7.57034 19.4207 7.3603 19.1456C7.15026 18.8705 7.02649 18.5393 7.00465 18.1939C6.98282 17.8485 7.06389 17.5044 7.23761 17.2051C7.41134 16.9057 7.66992 16.6646 7.98066 16.5123C8.29141 16.3599 8.64035 16.3031 8.98339 16.349C9.32642 16.3949 9.64813 16.5415 9.90785 16.7703C10.1676 16.999 10.3536 17.2997 10.4425 17.6342C10.5015 17.8563 10.5162 18.0879 10.4857 18.3157C10.4552 18.5436 10.3801 18.7632 10.2647 18.962C10.1493 19.1608 9.99592 19.3349 9.81323 19.4744C9.63054 19.6139 9.42216 19.716 9.19999 19.775ZM9.19999 12.775C8.86547 12.8637 8.51215 12.8513 8.18469 12.7393C7.85723 12.6273 7.57034 12.4207 7.3603 12.1456C7.15026 11.8705 7.02649 11.5393 7.00465 11.1939C6.98282 10.8485 7.06389 10.5044 7.23761 10.2051C7.41134 9.90575 7.66992 9.66465 7.98066 9.51227C8.29141 9.35989 8.64035 9.30307 8.98339 9.34899C9.32642 9.39492 9.64813 9.54153 9.90785 9.77028C10.1676 9.99904 10.3536 10.2997 10.4425 10.6342C10.5015 10.8563 10.5162 11.0879 10.4857 11.3157C10.4552 11.5436 10.3801 11.7632 10.2647 11.962C10.1493 12.1608 9.99592 12.3349 9.81323 12.4744C9.63054 12.6139 9.42216 12.716 9.19999 12.775ZM15.0333 9.27498C14.6988 9.36375 14.3455 9.35133 14.018 9.2393C13.6906 9.12726 13.4037 8.92065 13.1936 8.64558C12.9836 8.37051 12.8598 8.03934 12.838 7.69394C12.8161 7.34853 12.8972 7.00441 13.0709 6.70508C13.2447 6.40575 13.5033 6.16465 13.814 6.01227C14.1247 5.85989 14.4737 5.80307 14.8167 5.84899C15.1598 5.89492 15.4815 6.04153 15.7412 6.27028C16.0009 6.49904 16.187 6.79966 16.2758 7.13415C16.3348 7.3563 16.3495 7.58791 16.319 7.81574C16.2885 8.04357 16.2134 8.26315 16.0981 8.46196C15.9827 8.66076 15.8293 8.83489 15.6466 8.97439C15.4639 9.11389 15.2555 9.21603 15.0333 9.27498Z" fill="url(#paint0_linear_656_154)"/>
</g>
<defs>
<linearGradient id="paint0_linear_656_154" x1="32.1372" y1="-3.93293" x2="-9.43162" y2="24.1924" gradientUnits="userSpaceOnUse">
<stop stop-color="#FFC227"/>
<stop offset="0.498619" stop-color="#FF8CDF"/>
<stop offset="1" stop-color="#4EFCF9"/>
</linearGradient>
<clipPath id="clip0_656_154">
<rect width="28" height="28" fill="white"/>
</clipPath>
</defs>
</svg>
