<svg width="16" height="17" viewBox="0 0 16 17" fill="none" xmlns="http://www.w3.org/2000/svg">
<g clip-path="url(#clip0_656_622)">
<path d="M4.66663 16.5C4.57889 16.5005 4.49191 16.4837 4.41069 16.4505C4.32946 16.4174 4.25559 16.3685 4.19329 16.3067C4.13081 16.2447 4.08121 16.171 4.04737 16.0897C4.01352 16.0085 3.99609 15.9214 3.99609 15.8334C3.99609 15.7453 4.01352 15.6582 4.04737 15.577C4.08121 15.4957 4.13081 15.422 4.19329 15.36L9.63996 9.91336C10.0145 9.53836 10.2249 9.03003 10.2249 8.50003C10.2249 7.97003 10.0145 7.4617 9.63996 7.0867L4.19329 1.64004C4.06776 1.51451 3.99723 1.34424 3.99723 1.16671C3.99723 0.989174 4.06776 0.818911 4.19329 0.693375C4.31883 0.56784 4.48909 0.497314 4.66663 0.497314C4.84416 0.497314 5.01442 0.56784 5.13996 0.693375L10.5866 6.14003C10.897 6.44967 11.1433 6.81751 11.3114 7.22248C11.4794 7.62744 11.5659 8.06158 11.5659 8.50003C11.5659 8.93848 11.4794 9.37262 11.3114 9.77759C11.1433 10.1826 10.897 10.5504 10.5866 10.86L5.13996 16.3067C5.07767 16.3685 5.00379 16.4174 4.92256 16.4505C4.84134 16.4837 4.75436 16.5005 4.66663 16.5Z" fill="#99A1AA"/>
</g>
<defs>
<clipPath id="clip0_656_622">
<rect width="16" height="16" fill="white" transform="translate(0 0.5)"/>
</clipPath>
</defs>
</svg>
