<svg width="21" height="20" viewBox="0 0 21 20" fill="none" xmlns="http://www.w3.org/2000/svg">
<path d="M16.4583 0H4.79167C2.49167 0 0.625 1.86667 0.625 4.16667V15.8333C0.625 18.1333 2.49167 20 4.79167 20H16.4583C18.7583 20 20.625 18.1333 20.625 15.8333V4.16667C20.625 1.86667 18.7583 0 16.4583 0ZM14.9333 9.68333L13.125 11.1583L13.875 13.4333C13.975 13.7417 13.875 14.0833 13.6167 14.275C13.3583 14.475 13.0083 14.4833 12.7333 14.3083L10.6333 12.9417L8.56667 14.325C8.44167 14.4083 8.29167 14.45 8.14167 14.45C7.98333 14.45 7.81667 14.4 7.68333 14.3C7.425 14.1083 7.31667 13.7667 7.41667 13.4583L8.13333 11.1583L6.31667 9.68333C6.075 9.475 5.98333 9.14167 6.09167 8.84167C6.2 8.54167 6.49167 8.34167 6.80833 8.34167H9.1L9.90833 6.16667C10.0167 5.86667 10.3083 5.66667 10.625 5.66667C10.9417 5.66667 11.2333 5.86667 11.3417 6.16667L12.15 8.34167H14.4417C14.7583 8.34167 15.05 8.54167 15.1583 8.84167C15.2667 9.14167 15.175 9.48333 14.9333 9.69167V9.68333Z" fill="#99A1AA"/>
</svg>
