<svg version="1.1" id="Layer_1" xmlns="http://www.w3.org/2000/svg" xmlns:xlink="http://www.w3.org/1999/xlink" x="0px" y="0px"
	 width="100%" viewBox="0 0 1231 307" enable-background="new 0 0 1231 307" xml:space="preserve">
<path fill="#000000" opacity="1.000000" stroke="none" 
	d="
M458.000000,308.000000 
	C305.763885,308.000000 153.527771,308.000000 1.000000,308.000000 
	C1.000000,232.978821 1.000000,157.957260 1.468656,82.469208 
	C12.957515,81.946182 23.977718,81.889656 35.461304,81.906326 
	C41.949570,81.930710 47.974461,81.881897 54.456863,81.906006 
	C61.609318,82.263466 68.304253,82.547989 75.425217,82.905357 
	C78.679459,83.134041 81.641304,83.487953 81.975960,79.405083 
	C82.338127,74.986641 82.420433,70.530281 83.053291,66.152397 
	C84.095131,58.945480 85.382431,51.769070 86.772980,44.620010 
	C87.318672,41.814507 87.035629,39.936974 83.943390,39.014706 
	C73.096649,35.779648 62.009777,37.235371 50.535927,37.095215 
	C43.714638,37.071178 37.356892,37.118866 30.535648,37.094757 
	C23.714098,37.070801 17.356041,37.118633 10.549002,37.094753 
	C7.066679,37.015362 4.033340,37.007679 1.000000,37.000000 
	C1.000000,25.016161 1.000000,13.032324 1.000000,1.000000 
	C96.688095,1.000000 192.376190,1.000000 288.862854,1.299326 
	C288.851898,2.062962 288.095825,2.712706 287.224823,2.963846 
	C273.435364,6.939894 265.085175,16.009060 262.089874,29.960348 
	C259.713409,41.029427 266.163177,56.080517 276.304138,62.658012 
	C292.233612,72.989960 320.092468,71.287514 331.533234,54.334106 
	C337.699646,45.196457 338.910004,26.221201 333.081573,17.567255 
	C328.514587,10.786284 322.427673,6.254158 314.624268,3.832015 
	C313.255066,3.407018 312.200073,1.969768 311.000000,1.000004 
	C519.021423,1.000000 727.042908,1.000000 935.867004,1.292983 
	C936.034424,2.047169 935.460815,2.759659 934.754822,2.932942 
	C915.250061,7.720422 905.352905,26.935932 910.585510,45.109280 
	C914.493835,58.683304 929.896423,70.398880 948.432861,68.904854 
	C951.448486,68.650833 954.025269,68.249870 956.617004,68.011734 
	C972.477844,66.554398 987.460083,47.298157 984.968750,31.455811 
	C982.605957,16.431463 974.106934,6.889121 959.363220,2.917751 
	C958.778992,2.760377 958.448608,1.660666 958.000000,1.000007 
	C1049.263916,1.000000 1140.527954,1.000000 1232.000000,1.000000 
	C1232.000000,100.688004 1232.000000,200.376160 1231.757568,300.862701 
	C1227.011230,296.113953 1222.461914,290.602783 1218.015015,285.010193 
	C1212.977051,278.674316 1208.030762,272.265442 1203.020142,265.535339 
	C1193.467529,252.503952 1183.939453,239.825562 1174.234375,226.882599 
	C1172.990356,225.217911 1171.947998,223.798080 1170.851929,222.421112 
	C1165.945679,216.257812 1161.024170,210.106735 1156.055664,203.591492 
	C1155.891113,200.844055 1151.083130,200.143051 1153.844238,196.622147 
	C1159.671387,189.191559 1165.321411,181.622131 1171.358643,173.955109 
	C1175.174438,168.974167 1178.633057,164.116119 1182.186279,159.328354 
	C1188.440796,150.900772 1194.753296,142.516174 1201.359863,133.972534 
	C1210.834106,121.800163 1219.989868,109.768822 1229.580200,97.166405 
	C1219.121704,97.166405 1209.561401,97.166405 1199.537598,97.092415 
	C1188.716675,97.067909 1178.359131,97.117401 1167.614502,97.093109 
	C1166.066772,97.563683 1164.506714,97.798828 1163.808350,98.700951 
	C1157.769531,106.501244 1151.827637,114.378647 1145.974243,122.319580 
	C1141.194092,128.804611 1136.574585,135.408218 1131.570557,142.091324 
	C1127.570557,146.959244 1123.883911,151.695084 1120.122681,156.526749 
	C1116.735596,152.184113 1113.892212,148.538467 1110.912598,144.573669 
	C1105.220093,136.820251 1099.663696,129.385986 1094.056152,121.594727 
	C1090.377686,116.308136 1085.983521,111.759209 1083.302979,106.359558 
	C1079.295776,98.287788 1073.591675,95.283295 1064.538086,97.091774 
	C1055.716797,97.067451 1047.359131,97.116455 1038.537720,97.092308 
	C1028.429199,97.019157 1018.784546,97.019157 1008.165405,97.019157 
	C1012.601929,103.057076 1016.234863,108.175163 1020.050110,113.153534 
	C1025.953735,120.857178 1031.981934,128.465363 1037.982178,136.466827 
	C1046.321533,147.915100 1054.636230,159.010590 1063.085815,170.419571 
	C1070.588013,180.527786 1077.955322,190.322495 1085.121826,199.850113 
	C1077.784424,209.562057 1070.835449,218.759888 1063.577148,228.108032 
	C1058.326416,234.858154 1053.356201,241.436691 1048.451416,248.063629 
	C1043.561279,254.670639 1038.736816,261.326202 1033.570801,268.093201 
	C1024.221436,279.955597 1015.184753,291.685242 1005.826172,303.832703 
	C1016.151794,303.832703 1025.576660,303.832703 1035.465088,303.905060 
	C1046.286255,303.929352 1056.644043,303.881256 1067.414062,303.905029 
	C1071.531860,305.069244 1073.487793,302.646240 1075.318115,300.148560 
	C1082.181030,290.783356 1088.998169,281.384674 1095.979004,271.683472 
	C1101.097778,264.617401 1106.070190,257.866333 1111.360840,250.973175 
	C1113.881592,247.882599 1116.084106,244.934128 1118.474976,241.733521 
	C1123.492310,248.448044 1128.224731,254.781326 1133.093994,261.432922 
	C1140.472900,271.871765 1147.714966,281.992249 1155.091797,292.430145 
	C1159.480469,299.837250 1163.846436,306.736816 1174.464355,303.906250 
	C1183.619263,303.930359 1192.310547,303.881805 1201.465332,303.905884 
	C1211.952515,303.985657 1221.976318,303.992828 1232.000000,304.000000 
	C1232.000000,305.332123 1232.000000,306.664246 1232.000000,307.998169 
	C1073.311890,308.000000 914.623779,308.000000 755.139587,307.759399 
	C754.895996,306.956879 755.448486,306.394989 756.420532,305.903931 
	C771.046326,304.107513 783.988037,299.250916 795.334106,289.812134 
	C798.091187,287.175476 800.514587,284.559814 802.937988,281.944153 
	C803.329163,282.172150 803.720276,282.400177 804.111450,282.628174 
	C804.111450,289.662262 804.111450,296.696320 804.111450,303.833191 
	C813.079346,303.833191 821.540344,303.833191 830.464966,303.904724 
	C841.191833,303.976227 851.454895,303.976227 861.699341,303.976227 
	C861.699341,208.692520 861.699341,113.994362 861.699341,19.167387 
	C850.599060,19.167387 839.800293,19.167387 828.537781,19.094727 
	C819.144104,19.022068 810.214111,19.022068 800.761719,19.022068 
	C800.761719,51.933273 800.761719,84.259361 800.761719,116.836235 
	C798.542114,115.037590 796.771240,113.602600 794.687012,112.018967 
	C785.967834,104.202286 775.884277,99.886047 764.599609,97.084000 
	C754.641174,94.247208 744.888489,93.510933 734.556396,94.094902 
	C725.741882,95.404152 717.371582,96.785439 708.747559,98.105858 
	C708.324402,98.084373 708.154968,98.123756 707.721008,98.133781 
	C707.263184,98.390228 707.069946,98.676025 706.486633,98.978752 
	C701.929504,100.707664 697.762329,102.419632 693.205627,104.102829 
	C688.864380,106.343185 684.912781,108.612320 680.640503,111.026237 
	C675.865845,114.742699 671.411682,118.314384 666.646912,122.023781 
	C659.120850,129.997223 651.964905,137.875519 647.572083,148.123352 
	C639.395691,164.443710 636.033936,181.643799 636.110718,199.460281 
	C636.148193,208.148621 636.470398,217.019028 638.267517,225.465805 
	C640.126892,234.205566 643.929199,242.531982 646.938660,251.404877 
	C651.711609,261.706879 657.711975,270.718658 666.089111,278.421021 
	C671.110718,282.500763 676.000916,286.273834 681.037231,290.366638 
	C685.108215,292.829132 689.032959,294.971832 693.128296,297.432190 
	C701.199768,300.111023 709.100647,302.472198 717.364624,305.019409 
	C719.240906,305.473938 720.814453,305.573090 722.242065,306.081787 
	C722.964233,306.339142 723.422424,307.336945 724.000000,308.000000 
	C646.311890,308.000000 568.623779,308.000000 490.157623,307.652893 
	C490.202332,306.874390 490.981171,306.296295 491.854797,306.034668 
	C499.152435,303.849243 506.467468,301.722076 514.003662,299.403870 
	C522.217896,293.966797 530.205872,288.703186 538.165527,283.458191 
	C538.165527,289.762512 538.165527,296.799103 538.165527,303.833069 
	C540.386475,303.833069 542.193481,303.833069 544.464355,303.904358 
	C552.285706,303.928192 559.643188,303.880768 567.464539,303.904358 
	C577.190796,303.975342 586.453247,303.975342 595.696777,303.975342 
	C595.696777,208.689163 595.696777,113.999298 595.696777,19.167311 
	C585.262817,19.167311 575.132080,19.167311 564.537476,19.095627 
	C556.382690,19.071623 548.691711,19.119305 540.559814,19.095633 
	C538.522461,19.024279 536.926086,19.024279 534.839050,19.024279 
	C534.839050,51.847450 534.839050,84.156898 534.839050,115.246719 
	C527.338989,110.851128 519.691162,106.368950 511.867432,101.566650 
	C500.155151,96.501373 488.221558,93.638687 475.677185,94.033485 
	C469.445465,94.229599 463.224854,94.777893 456.591003,95.096466 
	C454.770538,95.349197 453.368256,95.726852 451.944550,95.987343 
	C427.323578,100.492004 407.097687,112.531128 391.557373,132.052399 
	C376.549011,150.905380 370.951904,173.179047 370.153046,196.737930 
	C369.865417,205.220428 371.022156,213.799973 372.056610,222.269669 
	C374.585968,242.978653 383.591187,260.795837 397.612732,276.008789 
	C407.828705,287.092743 420.150696,295.500793 434.364807,300.541351 
	C441.622833,303.115204 449.437439,304.119476 457.355072,306.022278 
	C457.806427,306.807587 457.903198,307.403809 458.000000,308.000000 
M141.131851,103.024071 
	C139.133133,103.024071 137.134430,103.024071 134.950836,103.024071 
	C134.950836,104.683212 134.950836,105.788330 134.103622,106.985725 
	C132.402344,107.046211 130.701050,107.106697 128.158890,107.024818 
	C126.093925,107.449974 122.643661,105.383522 122.431587,110.017326 
	C122.431587,110.017326 121.999260,110.167000 121.216949,110.023735 
	C120.158684,109.977554 119.100418,109.931374 117.782768,109.275497 
	C116.202721,108.145607 114.622673,107.015717 112.739754,105.277588 
	C110.507401,103.813690 108.275047,102.349792 105.777336,100.269035 
	C103.517792,98.569489 101.258255,96.869942 98.397896,94.892670 
	C96.931694,93.650597 95.465500,92.408524 93.421127,90.909897 
	C92.628288,90.235199 91.835449,89.560501 90.682320,88.233521 
	C89.558014,87.861984 88.433716,87.490448 87.166603,87.071716 
	C87.166603,89.695404 87.166603,91.848526 87.023331,94.900467 
	C87.071167,97.933731 87.119003,100.967003 87.023109,104.866486 
	C87.070724,106.911118 87.118347,108.955757 87.022499,111.899384 
	C87.070091,114.933449 87.117691,117.967522 87.021637,121.900368 
	C87.069656,124.934105 87.117676,127.967834 87.021935,131.921051 
	C87.069870,136.280716 87.117805,140.640381 87.021980,145.899124 
	C87.070549,148.932983 87.119118,151.966827 87.023682,155.917419 
	C87.071762,159.945419 87.119843,163.973404 87.023323,168.925140 
	C87.071129,173.950195 87.118935,178.975266 87.022812,184.912216 
	C87.070198,188.608810 87.117584,192.305405 87.020676,196.927826 
	C87.069092,202.618774 87.117508,208.309738 87.021378,214.920227 
	C87.069969,219.280457 87.118561,223.640701 87.022606,228.920441 
	C87.071159,233.281250 87.119713,237.642044 87.023407,242.929794 
	C87.070938,250.286926 87.118462,257.644073 87.020874,265.928406 
	C87.020874,279.193787 87.020874,292.459167 87.020874,305.832764 
	C92.393028,305.832764 97.196007,305.832764 102.889252,305.979706 
	C105.591934,305.929932 108.294609,305.880188 111.845535,305.977753 
	C113.563545,305.929169 115.281563,305.880585 117.847481,305.978394 
	C119.564720,305.929749 121.281967,305.881104 123.791122,305.978546 
	C124.860352,305.930023 125.929581,305.881531 127.823784,305.978790 
	C129.215820,305.930328 130.607849,305.881866 132.865646,305.979218 
	C134.910019,305.930573 136.954391,305.881958 139.791031,305.978455 
	C140.860519,305.929993 141.930023,305.881500 143.791748,305.977997 
	C144.861206,305.929657 145.930649,305.881317 147.866898,305.977875 
	C149.544571,305.977875 151.222244,305.977875 152.833374,305.977875 
	C152.833374,303.514282 152.833374,301.757477 152.978119,299.109955 
	C152.929779,296.406891 152.881439,293.703827 152.977707,290.121399 
	C152.929474,287.747437 152.881241,285.373444 152.977676,282.108887 
	C152.929474,279.405762 152.881271,276.702667 152.977707,273.100830 
	C152.929459,270.067474 152.881195,267.034088 152.977463,263.121521 
	C152.929550,260.747955 152.881638,258.374359 152.978012,255.152252 
	C152.929825,253.434494 152.881638,251.716721 152.977203,249.108322 
	C152.929108,246.405396 152.881012,243.702469 152.977371,240.082932 
	C152.929291,236.055603 152.881210,232.028275 152.977448,227.210815 
	C152.929337,222.807449 152.881210,218.404099 152.977219,213.093948 
	C152.929062,209.729492 152.880920,206.365036 152.976639,202.093781 
	C152.928955,198.729385 152.881271,195.364990 152.977127,191.101532 
	C152.929169,188.067490 152.881195,185.033463 152.977097,181.082733 
	C152.929138,177.055008 152.881180,173.027298 152.977142,168.072617 
	C152.929123,161.715652 152.881088,155.358704 152.977264,148.075348 
	C152.929291,142.383881 152.881317,136.692413 152.976898,130.073196 
	C152.984283,119.652481 153.031677,109.231438 152.943466,98.811531 
	C152.933533,97.638084 152.459274,95.885155 151.650391,95.468430 
	C150.864899,95.063751 148.885361,95.670639 148.287247,96.472549 
	C146.923004,98.301682 146.083328,100.522057 144.866806,102.904015 
	C144.279205,102.957787 143.139008,103.062134 141.131851,103.024071 
M118.203430,47.987144 
	C109.614059,50.246162 105.803940,56.491096 104.201523,64.648247 
	C111.010361,65.380219 110.816269,65.148376 115.300728,61.394005 
	C117.393547,59.641907 120.403961,58.985847 123.743385,57.978958 
	C127.601463,60.592972 131.725586,62.893486 135.257996,65.891243 
	C141.210892,70.943130 146.788422,76.437325 153.258209,82.425163 
	C150.910416,71.528267 148.489304,61.957535 142.043350,53.758781 
	C137.119659,47.496208 125.193626,44.100067 118.203430,47.987144 
M91.001068,63.814034 
	C90.333984,67.970055 89.467255,72.106735 89.062408,76.288147 
	C88.732857,79.691986 88.454514,83.121490 92.044617,85.590637 
	C97.795563,89.545959 103.289177,93.875443 109.180740,98.687607 
	C113.056725,101.107750 116.086449,105.670677 122.828819,103.215012 
	C119.678764,99.544678 116.752876,96.135536 113.826996,92.726395 
	C114.131142,92.394485 114.435295,92.062576 114.739441,91.730667 
	C115.812759,92.526077 116.886086,93.321487 118.218536,94.730522 
	C122.291649,98.532822 125.404488,104.322113 133.331482,101.259819 
	C132.726120,99.876068 132.166031,98.358238 131.413452,96.942764 
	C130.670471,95.545319 129.732803,94.251381 129.384079,92.238518 
	C133.511078,94.927238 135.818985,101.389763 143.110809,98.316162 
	C142.890228,96.682152 143.303864,94.225281 142.266174,93.051865 
	C138.541763,88.840332 134.336151,85.052917 130.287750,81.130676 
	C129.599930,80.464279 128.790634,79.923256 128.037460,79.324310 
	C128.424622,78.898392 128.893677,78.060532 129.184631,78.118401 
	C130.396515,78.359360 131.880981,78.544891 132.673782,79.340416 
	C135.454498,82.130676 138.215958,84.996979 140.562729,88.148643 
	C143.597137,92.223770 147.388321,92.667503 152.545547,91.483307 
	C151.473114,89.492256 150.897522,87.528481 149.636536,86.230644 
	C142.522903,78.909187 135.285370,71.706230 128.000412,64.554199 
	C125.465675,62.065723 119.989891,62.356979 116.329674,65.205597 
	C114.589638,68.641350 112.319122,71.335823 107.213470,71.023224 
	C105.462654,69.708168 102.474838,68.604317 102.207062,67.036034 
	C101.561035,63.252510 101.995819,59.232414 102.392227,55.348274 
	C102.553009,53.772823 103.747070,52.302830 104.580109,50.555950 
	C95.142296,49.316238 95.144447,49.316860 92.782814,57.513313 
	C92.254898,59.345516 91.706093,61.171696 91.001068,63.814034 
M228.922638,81.978035 
	C233.517853,81.978035 238.113068,81.978035 242.675385,81.978035 
	C242.675385,66.683044 242.675385,51.976654 242.675385,37.166630 
	C229.567032,37.166630 216.782516,37.166630 203.070435,37.024860 
	C192.380005,37.072201 181.689560,37.119541 170.073013,37.025024 
	C161.640274,37.097366 153.058151,36.081974 145.244781,40.046722 
	C150.606079,54.515778 155.843613,68.650780 161.320740,83.432426 
	C172.255173,82.913170 183.626846,82.373154 195.926086,81.978165 
	C206.616669,81.929848 217.307266,81.881531 228.922638,81.978035 
M924.104736,97.021698 
	C921.835266,97.021698 919.565735,97.021698 917.288696,97.021698 
	C917.288696,166.296204 917.288696,235.023666 917.288696,303.833221 
	C920.051025,303.833221 922.526123,303.833221 925.928406,303.977478 
	C932.952820,303.929413 939.977173,303.881317 947.928894,303.977020 
	C957.525757,303.977020 967.122681,303.977020 976.699707,303.977020 
	C976.699707,234.696167 976.699707,165.992325 976.699707,97.166496 
	C966.266113,97.166496 956.133911,97.166496 945.074463,97.020409 
	C938.383301,97.069168 931.692139,97.117928 924.104736,97.021698 
M329.999542,160.500000 
	C329.999542,139.410904 329.999542,118.321823 329.999542,97.386520 
	C309.256561,97.386520 289.198303,97.386520 269.251099,97.386520 
	C269.251099,166.377701 269.251099,234.981476 269.251099,303.701660 
	C289.561432,303.701660 309.618286,303.701660 329.999481,303.701660 
	C329.999481,256.102600 329.999481,208.801300 329.999542,160.500000 
z"/>
<path fill="#9F72D1" opacity="1.000000" stroke="none" 
	d="
M310.531433,1.000004 
	C312.200073,1.969768 313.255066,3.407018 314.624268,3.832015 
	C322.427673,6.254158 328.514587,10.786284 333.081573,17.567255 
	C338.910004,26.221201 337.699646,45.196457 331.533234,54.334106 
	C320.092468,71.287514 292.233612,72.989960 276.304138,62.658012 
	C266.163177,56.080517 259.713409,41.029427 262.089874,29.960348 
	C265.085175,16.009060 273.435364,6.939894 287.224823,2.963846 
	C288.095825,2.712706 288.851898,2.062962 289.330719,1.299326 
	C296.020966,1.000000 303.041901,1.000000 310.531433,1.000004 
z"/>
<path fill="#B06BC7" opacity="1.000000" stroke="none" 
	d="
M458.468658,308.000000 
	C457.903198,307.403809 457.806427,306.807587 457.354858,305.564514 
	C457.000061,293.472107 456.881500,282.024902 457.045807,270.581787 
	C457.140106,264.011993 457.693207,257.448822 458.372437,251.038345 
	C474.634369,259.341736 490.799438,259.143341 507.518066,252.760132 
	C508.911560,254.717255 510.367767,256.371307 510.827118,258.266937 
	C511.269379,260.091949 510.586060,262.165497 510.562103,264.131866 
	C510.463379,272.246674 509.970245,280.396393 510.573273,288.462189 
	C510.848724,292.146362 507.913849,297.329193 513.777283,299.577362 
	C506.467468,301.722076 499.152435,303.849243 491.854797,306.034668 
	C490.981171,306.296295 490.202332,306.874390 489.689758,307.652893 
	C479.645782,308.000000 469.291534,308.000000 458.468658,308.000000 
z"/>
<path fill="#DB8B9F" opacity="1.000000" stroke="none" 
	d="
M948.000916,68.833176 
	C929.896423,70.398880 914.493835,58.683304 910.585510,45.109280 
	C905.352905,26.935932 915.250061,7.720422 934.754822,2.932942 
	C935.460815,2.759659 936.034424,2.047169 936.334839,1.292983 
	C938.041687,1.000000 940.083313,1.000000 942.672729,1.104980 
	C943.220459,1.209959 943.644348,1.265876 943.644348,1.265876 
	C943.644348,1.265876 944.000000,1.000000 944.000000,1.000000 
	C944.444458,1.000000 944.888916,1.000000 945.734741,1.341941 
	C946.907288,3.449318 948.342468,5.213530 948.345703,6.980392 
	C948.374634,22.663593 948.138855,38.347164 948.006714,54.030842 
	C947.965149,58.964619 948.000671,63.899048 948.000916,68.833176 
z"/>
<path fill="#C77AB2" opacity="1.000000" stroke="none" 
	d="
M756.000977,305.833069 
	C755.448486,306.394989 754.895996,306.956879 754.671753,307.759399 
	C744.979126,308.000000 734.958191,308.000000 724.468628,308.000000 
	C723.422424,307.336945 722.964233,306.339142 722.242065,306.081787 
	C720.814453,305.573090 719.240906,305.473938 717.334045,304.611206 
	C716.660889,292.659973 716.329895,281.303955 716.124390,269.945648 
	C716.026367,264.527679 715.915405,259.085999 716.331665,253.695267 
	C716.483765,251.724335 718.144165,249.869843 719.435425,248.101501 
	C723.460327,250.171173 727.137634,252.158844 730.877808,254.020264 
	C739.201721,258.162933 748.230957,256.626617 757.000671,257.578094 
	C756.667053,273.937073 756.333984,289.885071 756.000977,305.833069 
z"/>
<path fill="#DE8E9C" opacity="1.000000" stroke="none" 
	d="
M948.432861,68.904854 
	C948.000671,63.899048 947.965149,58.964619 948.006714,54.030842 
	C948.138855,38.347164 948.374634,22.663593 948.345703,6.980392 
	C948.342468,5.213530 946.907288,3.449318 946.068115,1.341941 
	C949.692932,1.000000 953.385803,1.000000 957.539368,1.000007 
	C958.448608,1.660666 958.778992,2.760377 959.363220,2.917751 
	C974.106934,6.889121 982.605957,16.431463 984.968750,31.455811 
	C987.460083,47.298157 972.477844,66.554398 956.617004,68.011734 
	C954.025269,68.249870 951.448486,68.650833 948.432861,68.904854 
z"/>
<path fill="#6BA0F0" opacity="1.000000" stroke="none" 
	d="
M34.997925,81.833130 
	C23.977718,81.889656 12.957515,81.946182 1.468656,82.001350 
	C1.000000,67.312439 1.000000,52.624878 1.000000,37.468658 
	C4.033340,37.007679 7.066679,37.015362 10.554569,37.468925 
	C11.564773,39.444363 11.920292,41.086445 12.707222,42.485954 
	C20.095379,55.625336 27.557308,68.723244 34.997925,81.833130 
z"/>
<path fill="#F7A484" opacity="1.000000" stroke="none" 
	d="
M1203.044678,265.888336 
	C1208.030762,272.265442 1212.977051,278.674316 1218.015015,285.010193 
	C1222.461914,290.602783 1227.011230,296.113953 1231.757568,301.330566 
	C1232.000000,301.750000 1232.000000,302.500000 1232.000000,303.625000 
	C1221.976318,303.992828 1211.952515,303.985657 1201.493652,303.506866 
	C1201.256836,298.790833 1201.561646,294.548004 1201.625488,290.301575 
	C1201.696899,285.557495 1202.252319,280.660858 1201.285278,276.109283 
	C1200.441772,272.139618 1200.675171,268.998413 1203.044678,265.888336 
z"/>
<path fill="#DE8E9C" opacity="1.000000" stroke="none" 
	d="
M943.750000,1.000000 
	C944.000000,1.000000 943.644348,1.265876 943.644348,1.265876 
	C943.644348,1.265876 943.220459,1.209959 943.110229,1.104980 
	C943.000000,1.000000 943.500000,1.000000 943.750000,1.000000 
z"/>
<path fill="#9F72D1" opacity="1.000000" stroke="none" 
	d="
M329.999512,161.000000 
	C329.999481,208.801300 329.999481,256.102600 329.999481,303.701660 
	C309.618286,303.701660 289.561432,303.701660 269.251099,303.701660 
	C269.251099,234.981476 269.251099,166.377701 269.251099,97.386520 
	C289.198303,97.386520 309.256561,97.386520 329.999542,97.386520 
	C329.999542,118.321823 329.999542,139.410904 329.999512,161.000000 
z"/>
<path fill="#A96DCB" opacity="1.000000" stroke="none" 
	d="
M458.039764,250.882660 
	C457.693207,257.448822 457.140106,264.011993 457.045807,270.581787 
	C456.881500,282.024902 457.000061,293.472107 457.000275,305.375397 
	C449.437439,304.119476 441.622833,303.115204 434.364807,300.541351 
	C420.150696,295.500793 407.828705,287.092743 397.612732,276.008789 
	C383.591187,260.795837 374.585968,242.978653 372.056610,222.269669 
	C371.022156,213.799973 369.865417,205.220428 370.153046,196.737930 
	C370.951904,173.179047 376.549011,150.905380 391.557373,132.052399 
	C407.097687,112.531128 427.323578,100.492004 451.944550,95.987343 
	C453.368256,95.726852 454.770538,95.349197 456.499573,95.458977 
	C456.210785,98.255707 455.109558,100.613632 455.081299,102.984344 
	C454.915863,116.863785 454.913788,130.747345 455.093414,144.626465 
	C455.121521,146.798645 456.360657,148.955154 456.882843,151.424637 
	C451.803833,156.227661 446.170502,160.165924 442.106079,165.337265 
	C433.318970,176.517456 431.526733,189.876740 431.956238,203.755798 
	C432.582825,224.003448 440.190033,240.239868 458.039764,250.882660 
z"/>
<path fill="#D284A7" opacity="1.000000" stroke="none" 
	d="
M829.001465,19.167387 
	C839.800293,19.167387 850.599060,19.167387 861.699341,19.167387 
	C861.699341,113.994362 861.699341,208.692520 861.699341,303.976227 
	C851.454895,303.976227 841.191833,303.976227 830.382935,303.525726 
	C829.516479,298.662201 829.074402,294.253967 828.900085,289.835144 
	C828.529602,280.443085 828.023926,271.044006 828.075500,261.650543 
	C828.150024,248.091110 828.706177,234.534851 828.982544,220.975723 
	C829.093262,215.544876 829.090271,210.108505 828.992981,204.677261 
	C828.771606,192.321365 828.440063,179.967468 828.199219,167.611877 
	C828.141479,164.650528 828.260071,161.685623 828.303589,158.722443 
	C828.480896,146.653564 828.773376,134.584900 828.790894,122.515823 
	C828.799500,116.610573 827.966797,110.696999 828.101624,104.800606 
	C828.335999,94.549377 829.164978,84.312737 829.471436,74.061806 
	C829.653381,67.976219 829.267029,61.875393 829.216614,55.780754 
	C829.115662,43.576542 829.070007,31.371870 829.001465,19.167387 
z"/>
<path fill="#CF81AB" opacity="1.000000" stroke="none" 
	d="
M828.537720,19.094727 
	C829.070007,31.371870 829.115662,43.576542 829.216614,55.780754 
	C829.267029,61.875393 829.653381,67.976219 829.471436,74.061806 
	C829.164978,84.312737 828.335999,94.549377 828.101624,104.800606 
	C827.966797,110.696999 828.799500,116.610573 828.790894,122.515823 
	C828.773376,134.584900 828.480896,146.653564 828.303589,158.722443 
	C828.260071,161.685623 828.141479,164.650528 828.199219,167.611877 
	C828.440063,179.967468 828.771606,192.321365 828.992981,204.677261 
	C829.090271,210.108505 829.093262,215.544876 828.982544,220.975723 
	C828.706177,234.534851 828.150024,248.091110 828.075500,261.650543 
	C828.023926,271.044006 828.529602,280.443085 828.900085,289.835144 
	C829.074402,294.253967 829.516479,298.662201 829.919250,303.454224 
	C821.540344,303.833191 813.079346,303.833191 804.111450,303.833191 
	C804.111450,296.696320 804.111450,289.662262 804.111450,282.628174 
	C803.720276,282.400177 803.329163,282.172150 802.937988,281.944153 
	C800.514587,284.559814 798.091187,287.175476 795.264526,289.458923 
	C794.583252,283.081085 794.042847,277.033325 794.091553,270.990265 
	C794.157410,262.819489 794.933899,254.650848 794.887085,246.484268 
	C794.864868,242.612762 793.640808,238.748154 793.104004,234.558746 
	C794.511414,231.828232 795.808289,229.435669 797.034973,227.007690 
	C802.088989,217.004578 802.254028,206.242188 802.025879,195.386429 
	C801.815674,185.382492 798.854553,176.279984 793.658936,167.356781 
	C793.527283,161.567123 793.142944,156.282349 793.135010,150.996994 
	C793.123901,143.619827 793.253662,136.235825 793.589661,128.866898 
	C793.843872,123.290611 794.514832,117.733337 795.000366,112.167618 
	C796.771240,113.602600 798.542114,115.037590 800.761719,116.836235 
	C800.761719,84.259361 800.761719,51.933273 800.761719,19.022068 
	C810.214111,19.022068 819.144104,19.022068 828.537720,19.094727 
z"/>
<path fill="#B86CC1" opacity="1.000000" stroke="none" 
	d="
M565.001343,19.167311 
	C575.132080,19.167311 585.262817,19.167311 595.696777,19.167311 
	C595.696777,113.999298 595.696777,208.689163 595.696777,303.975342 
	C586.453247,303.975342 577.190796,303.975342 567.377441,303.507690 
	C566.551819,301.242950 566.054260,299.447723 566.039429,297.648529 
	C565.959290,287.936066 565.885498,278.221008 566.024170,268.509918 
	C566.223389,254.562088 566.646423,240.617599 566.886902,226.670181 
	C566.951843,222.901031 566.731018,219.125427 566.591553,215.354630 
	C566.390076,209.909698 565.984680,204.467529 565.947449,199.022263 
	C565.856934,185.775299 566.026550,172.526230 565.892273,159.280029 
	C565.827209,152.863266 565.007629,146.448242 565.066589,140.037354 
	C565.201660,125.376755 565.832520,110.720612 565.957703,96.060051 
	C566.123413,76.653503 566.077698,57.243954 565.952820,37.836784 
	C565.912781,31.611843 565.333740,25.390369 565.001343,19.167311 
z"/>
<path fill="#B56AC3" opacity="1.000000" stroke="none" 
	d="
M564.537476,19.095627 
	C565.333740,25.390369 565.912781,31.611843 565.952820,37.836784 
	C566.077698,57.243954 566.123413,76.653503 565.957703,96.060051 
	C565.832520,110.720612 565.201660,125.376755 565.066589,140.037354 
	C565.007629,146.448242 565.827209,152.863266 565.892273,159.280029 
	C566.026550,172.526230 565.856934,185.775299 565.947449,199.022263 
	C565.984680,204.467529 566.390076,209.909698 566.591553,215.354630 
	C566.731018,219.125427 566.951843,222.901031 566.886902,226.670181 
	C566.646423,240.617599 566.223389,254.562088 566.024170,268.509918 
	C565.885498,278.221008 565.959290,287.936066 566.039429,297.648529 
	C566.054260,299.447723 566.551819,301.242950 566.913635,303.436676 
	C559.643188,303.880768 552.285706,303.928192 544.464050,303.471069 
	C543.347961,290.768524 542.493042,278.576508 542.135071,266.369904 
	C541.971375,260.787750 543.050964,255.179321 543.102173,249.578568 
	C543.208069,238.003616 542.966614,226.425919 542.934448,214.849152 
	C542.895874,200.982864 542.927856,187.116379 542.927002,173.249985 
	C542.926514,165.142685 542.900635,157.035324 542.923706,148.928101 
	C542.954224,138.206696 543.144531,127.484100 543.032654,116.764450 
	C542.947754,108.636047 542.153687,100.505211 542.300659,92.386780 
	C542.471985,82.917824 543.681702,73.465103 543.785339,63.998150 
	C543.902771,53.273666 543.445618,42.533825 542.924500,31.815912 
	C542.718506,27.578445 541.667236,23.382071 541.000793,19.166985 
	C548.691711,19.119305 556.382690,19.071623 564.537476,19.095627 
z"/>
<path fill="#DE8E9C" opacity="1.000000" stroke="none" 
	d="
M946.001709,97.166496 
	C956.133911,97.166496 966.266113,97.166496 976.699707,97.166496 
	C976.699707,165.992325 976.699707,234.696167 976.699707,303.977020 
	C967.122681,303.977020 957.525757,303.977020 947.464661,303.448120 
	C947.000305,291.505768 947.000000,280.092346 947.000000,268.678925 
	C946.999939,246.254669 947.092102,223.829895 946.970581,201.406296 
	C946.875122,183.799927 946.346130,166.195190 946.326416,148.589371 
	C946.310120,134.070404 946.813110,119.551453 946.949158,105.031212 
	C946.973633,102.412827 946.334473,99.788231 946.001709,97.166496 
z"/>
<path fill="#B369C5" opacity="1.000000" stroke="none" 
	d="
M540.559814,19.095631 
	C541.667236,23.382071 542.718506,27.578445 542.924500,31.815912 
	C543.445618,42.533825 543.902771,53.273666 543.785339,63.998150 
	C543.681702,73.465103 542.471985,82.917824 542.300659,92.386780 
	C542.153687,100.505211 542.947754,108.636047 543.032654,116.764450 
	C543.144531,127.484100 542.954224,138.206696 542.923706,148.928101 
	C542.900635,157.035324 542.926514,165.142685 542.927002,173.249985 
	C542.927856,187.116379 542.895874,200.982864 542.934448,214.849152 
	C542.966614,226.425919 543.208069,238.003616 543.102173,249.578568 
	C543.050964,255.179321 541.971375,260.787750 542.135071,266.369904 
	C542.493042,278.576508 543.347961,290.768524 544.000244,303.399780 
	C542.193481,303.833069 540.386475,303.833069 538.165527,303.833069 
	C538.165527,296.799103 538.165527,289.762512 538.165527,283.458191 
	C530.205872,288.703186 522.217896,293.966797 514.003662,299.403870 
	C507.913849,297.329193 510.848724,292.146362 510.573273,288.462189 
	C509.970245,280.396393 510.463379,272.246674 510.562103,264.131866 
	C510.586060,262.165497 511.269379,260.091949 510.827118,258.266937 
	C510.367767,256.371307 508.911560,254.717255 507.799408,252.517151 
	C511.829163,249.194504 516.547180,246.887070 519.972168,243.333420 
	C537.576233,225.068054 539.573120,203.176208 533.327148,179.884262 
	C530.045776,167.647583 521.729858,158.744400 511.895050,150.698532 
	C511.553375,147.978561 511.061951,145.680023 511.038116,143.376663 
	C510.944092,134.274170 510.882416,125.168159 511.041779,116.067535 
	C511.124634,111.336220 511.693848,106.613426 512.043335,101.886780 
	C519.691162,106.368950 527.338989,110.851128 534.839050,115.246719 
	C534.839050,84.156898 534.839050,51.847450 534.839050,19.024279 
	C536.926086,19.024279 538.522461,19.024279 540.559814,19.095631 
z"/>
<path fill="#EA9991" opacity="1.000000" stroke="none" 
	d="
M1095.832520,271.998505 
	C1088.998169,281.384674 1082.181030,290.783356 1075.318115,300.148560 
	C1073.487793,302.646240 1071.531860,305.069244 1067.415161,303.494812 
	C1067.041748,299.745941 1067.190918,296.475769 1067.094604,293.212891 
	C1066.884888,286.107147 1066.378052,279.006531 1066.318848,271.901093 
	C1066.268188,265.839813 1066.828369,259.774933 1066.835938,253.711304 
	C1066.844360,246.941498 1066.698242,240.160538 1066.255493,233.408310 
	C1066.133423,231.547668 1064.711792,229.772232 1063.886475,227.957703 
	C1070.835449,218.759888 1077.784424,209.562057 1085.121826,199.850113 
	C1077.955322,190.322495 1070.588013,180.527786 1063.273438,170.101318 
	C1066.570679,166.469345 1065.979858,162.686829 1065.775757,158.818039 
	C1065.395264,151.604553 1065.226318,144.371277 1065.256714,137.147446 
	C1065.282227,131.067184 1065.955566,124.986702 1065.906250,118.909843 
	C1065.847412,111.659622 1065.323975,104.413177 1065.001831,97.165092 
	C1073.591675,95.283295 1079.295776,98.287788 1083.302979,106.359558 
	C1085.983521,111.759209 1090.377686,116.308136 1093.812378,121.902100 
	C1093.075317,128.220428 1092.069458,133.874588 1092.071777,139.528351 
	C1092.079102,157.975983 1092.585205,176.423096 1092.639282,194.871155 
	C1092.672729,206.265060 1092.114990,217.659531 1092.037109,229.055222 
	C1091.946899,242.264603 1092.150513,255.475861 1092.088257,268.685669 
	C1092.074829,271.537354 1093.550903,272.065247 1095.832520,271.998505 
z"/>
<path fill="#F09F8A" opacity="1.000000" stroke="none" 
	d="
M1171.044067,174.109650 
	C1165.321411,181.622131 1159.671387,189.191559 1153.844238,196.622147 
	C1151.083130,200.143051 1155.891113,200.844055 1155.810303,203.900314 
	C1155.415527,214.891037 1154.981934,225.215057 1155.064331,235.534973 
	C1155.199463,252.460144 1155.706787,269.382141 1155.947998,286.307007 
	C1155.975586,288.237152 1155.304199,290.177246 1154.957031,292.112732 
	C1147.714966,281.992249 1140.472900,271.871765 1133.103760,260.959045 
	C1133.317993,252.558395 1133.808472,244.952972 1133.960815,237.340775 
	C1134.131714,228.799530 1133.982056,220.252151 1134.001343,211.707504 
	C1134.012207,206.917252 1134.128906,202.127045 1134.117310,197.336990 
	C1134.088989,185.663361 1133.947632,173.989609 1133.987061,162.316376 
	C1134.004883,157.017349 1134.547363,151.714005 1134.407227,146.424408 
	C1134.367065,144.914764 1132.768066,143.446487 1131.883911,141.959244 
	C1136.574585,135.408218 1141.194092,128.804611 1145.974243,122.319580 
	C1151.827637,114.378647 1157.769531,106.501244 1163.808350,98.700951 
	C1164.506714,97.798828 1166.066772,97.563683 1167.701538,97.491257 
	C1168.450439,100.092079 1168.993652,102.226425 1168.950439,104.348877 
	C1168.809204,111.309052 1168.199829,118.266335 1168.239014,125.222092 
	C1168.305908,137.115784 1168.574219,149.014008 1169.080566,160.896606 
	C1169.269165,165.320801 1170.363037,169.706436 1171.044067,174.109650 
z"/>
<path fill="#DB8B9F" opacity="1.000000" stroke="none" 
	d="
M945.538086,97.093452 
	C946.334473,99.788231 946.973633,102.412827 946.949158,105.031212 
	C946.813110,119.551453 946.310120,134.070404 946.326416,148.589371 
	C946.346130,166.195190 946.875122,183.799927 946.970581,201.406296 
	C947.092102,223.829895 946.999939,246.254669 947.000000,268.678925 
	C947.000000,280.092346 947.000305,291.505768 947.000977,303.376221 
	C939.977173,303.881317 932.952820,303.929413 925.550781,303.511047 
	C925.426819,299.750580 925.941772,296.451538 925.879028,293.163513 
	C925.752869,286.557800 925.011963,279.955627 925.066406,273.356445 
	C925.160767,261.904388 925.798828,250.457367 925.939453,239.004929 
	C926.002014,233.912125 925.193115,228.812927 925.153931,223.713760 
	C925.024780,206.922745 925.048828,190.130386 925.059570,173.338593 
	C925.061462,170.354935 925.349976,167.372223 925.384338,164.387665 
	C925.437500,159.769562 925.372925,155.150223 925.382996,150.531464 
	C925.389832,147.394516 925.436218,144.257660 925.470398,141.120819 
	C925.495483,138.820877 925.577087,136.520508 925.550171,134.221283 
	C925.490051,129.087723 925.365662,123.954941 925.289673,118.821503 
	C925.182861,111.603394 925.096252,104.384972 925.000977,97.166687 
	C931.692139,97.117928 938.383301,97.069168 945.538086,97.093452 
z"/>
<path fill="#C477B5" opacity="1.000000" stroke="none" 
	d="
M719.116455,247.962234 
	C718.144165,249.869843 716.483765,251.724335 716.331665,253.695267 
	C715.915405,259.085999 716.026367,264.527679 716.124390,269.945648 
	C716.329895,281.303955 716.660889,292.659973 716.970947,304.425140 
	C709.100647,302.472198 701.199768,300.111023 693.212280,297.014862 
	C693.417053,293.984070 693.998962,291.682037 693.949768,289.393555 
	C693.732239,279.270813 693.069092,269.151794 693.073242,259.031677 
	C693.077576,248.578445 693.840515,238.127426 693.958191,227.671906 
	C694.123596,212.973221 694.126282,198.269943 693.968445,183.571091 
	C693.764160,164.539764 693.243042,145.511826 693.045166,126.480484 
	C692.967712,119.033562 693.396851,111.581383 693.595215,104.131607 
	C697.762329,102.419632 701.929504,100.707664 706.692261,98.876122 
	C707.553467,98.597488 707.786011,98.399681 707.985596,98.163132 
	C708.154968,98.123756 708.324402,98.084373 708.747253,98.537827 
	C709.260437,103.295822 709.764343,107.562897 709.731018,111.825775 
	C709.652466,121.890495 709.147400,131.953217 709.147461,142.016754 
	C709.147522,148.717178 709.720703,155.417587 709.900818,162.431091 
	C696.345886,179.498764 695.920471,198.647430 699.889587,218.407776 
	C702.353455,230.674484 709.356323,240.289276 719.116455,247.962234 
z"/>
<path fill="#B06BC7" opacity="1.000000" stroke="none" 
	d="
M511.867432,101.566650 
	C511.693848,106.613426 511.124634,111.336220 511.041779,116.067535 
	C510.882416,125.168159 510.944092,134.274170 511.038116,143.376663 
	C511.061951,145.680023 511.553375,147.978561 511.527008,150.641388 
	C493.142273,141.466705 475.080658,141.420578 457.039825,151.118912 
	C456.360657,148.955154 455.121521,146.798645 455.093414,144.626465 
	C454.913788,130.747345 454.915863,116.863785 455.081299,102.984344 
	C455.109558,100.613632 456.210785,98.255707 456.907776,95.529373 
	C463.224854,94.777893 469.445465,94.229599 475.677185,94.033485 
	C488.221558,93.638687 500.155151,96.501373 511.867432,101.566650 
z"/>
<path fill="#C174B8" opacity="1.000000" stroke="none" 
	d="
M680.891052,290.046906 
	C676.000916,286.273834 671.110718,282.500763 666.098389,277.984680 
	C665.984131,268.021271 666.056274,258.800262 665.962830,249.580933 
	C665.932678,246.614334 665.341248,243.656845 665.230164,240.686844 
	C665.081299,236.708603 665.034119,232.718842 665.151367,228.740143 
	C665.340088,222.333405 665.987671,215.928894 665.925476,209.528442 
	C665.797241,196.324692 665.235657,183.125565 665.047852,169.921738 
	C664.977234,164.963257 665.470764,159.997925 665.669312,155.034180 
	C666.111389,143.985306 666.529602,132.935486 666.957520,121.886063 
	C671.411682,118.314384 675.865845,114.742699 680.649170,111.468925 
	C680.991577,118.378227 680.921021,124.991226 681.048767,131.600403 
	C681.128601,135.727798 681.714478,139.850113 681.700012,143.973419 
	C681.682007,149.106567 681.047119,154.240433 681.092896,159.370300 
	C681.179443,169.077713 681.888184,178.787308 681.745239,188.487244 
	C681.523193,203.551147 680.504578,218.605240 680.379150,233.668121 
	C680.246765,249.563782 680.777405,265.464722 680.989441,281.363739 
	C681.028015,284.257172 680.927368,287.152466 680.891052,290.046906 
z"/>
<path fill="#EC9A8F" opacity="1.000000" stroke="none" 
	d="
M1095.979004,271.683472 
	C1093.550903,272.065247 1092.074829,271.537354 1092.088257,268.685669 
	C1092.150513,255.475861 1091.946899,242.264603 1092.037109,229.055222 
	C1092.114990,217.659531 1092.672729,206.265060 1092.639282,194.871155 
	C1092.585205,176.423096 1092.079102,157.975983 1092.071777,139.528351 
	C1092.069458,133.874588 1093.075317,128.220428 1093.863403,122.259094 
	C1099.663696,129.385986 1105.220093,136.820251 1110.756104,144.933319 
	C1110.809570,149.207336 1111.030273,152.806824 1110.926392,156.396896 
	C1110.707886,163.951981 1110.119751,171.500092 1110.042725,179.054733 
	C1109.895752,193.490952 1109.873901,207.931229 1110.044434,222.366943 
	C1110.157593,231.952301 1110.694946,241.532669 1111.042480,251.115265 
	C1106.070190,257.866333 1101.097778,264.617401 1095.979004,271.683472 
z"/>
<path fill="#ED9C8D" opacity="1.000000" stroke="none" 
	d="
M1111.360840,250.973175 
	C1110.694946,241.532669 1110.157593,231.952301 1110.044434,222.366943 
	C1109.873901,207.931229 1109.895752,193.490952 1110.042725,179.054733 
	C1110.119751,171.500092 1110.707886,163.951981 1110.926392,156.396896 
	C1111.030273,152.806824 1110.809570,149.207336 1110.892334,145.252472 
	C1113.892212,148.538467 1116.735596,152.184113 1120.122681,156.526749 
	C1123.883911,151.695084 1127.570557,146.959244 1131.570557,142.091324 
	C1132.768066,143.446487 1134.367065,144.914764 1134.407227,146.424408 
	C1134.547363,151.714005 1134.004883,157.017349 1133.987061,162.316376 
	C1133.947632,173.989609 1134.088989,185.663361 1134.117310,197.336990 
	C1134.128906,202.127045 1134.012207,206.917252 1134.001343,211.707504 
	C1133.982056,220.252151 1134.131714,228.799530 1133.960815,237.340775 
	C1133.808472,244.952972 1133.317993,252.558395 1132.966919,260.640686 
	C1128.224731,254.781326 1123.492310,248.448044 1118.474976,241.733521 
	C1116.084106,244.934128 1113.881592,247.882599 1111.360840,250.973175 
z"/>
<path fill="#C276B6" opacity="1.000000" stroke="none" 
	d="
M681.037231,290.366638 
	C680.927368,287.152466 681.028015,284.257172 680.989441,281.363739 
	C680.777405,265.464722 680.246765,249.563782 680.379150,233.668121 
	C680.504578,218.605240 681.523193,203.551147 681.745239,188.487244 
	C681.888184,178.787308 681.179443,169.077713 681.092896,159.370300 
	C681.047119,154.240433 681.682007,149.106567 681.700012,143.973419 
	C681.714478,139.850113 681.128601,135.727798 681.048767,131.600403 
	C680.921021,124.991226 680.991577,118.378227 680.969727,111.324150 
	C684.912781,108.612320 688.864380,106.343185 693.205627,104.102829 
	C693.396851,111.581383 692.967712,119.033562 693.045166,126.480484 
	C693.243042,145.511826 693.764160,164.539764 693.968445,183.571091 
	C694.126282,198.269943 694.123596,212.973221 693.958191,227.671906 
	C693.840515,238.127426 693.077576,248.578445 693.073242,259.031677 
	C693.069092,269.151794 693.732239,279.270813 693.949768,289.393555 
	C693.998962,291.682037 693.417053,293.984070 693.041687,296.697205 
	C689.032959,294.971832 685.108215,292.829132 681.037231,290.366638 
z"/>
<path fill="#BF73B9" opacity="1.000000" stroke="none" 
	d="
M666.646912,122.023773 
	C666.529602,132.935486 666.111389,143.985306 665.669312,155.034180 
	C665.470764,159.997925 664.977234,164.963257 665.047852,169.921738 
	C665.235657,183.125565 665.797241,196.324692 665.925476,209.528442 
	C665.987671,215.928894 665.340088,222.333405 665.151367,228.740143 
	C665.034119,232.718842 665.081299,236.708603 665.230164,240.686844 
	C665.341248,243.656845 665.932678,246.614334 665.962830,249.580933 
	C666.056274,258.800262 665.984131,268.021271 665.966919,277.677979 
	C657.711975,270.718658 651.711609,261.706879 647.308289,251.253860 
	C648.079224,249.400253 648.870178,248.080154 648.938538,246.723587 
	C649.245117,240.647079 649.468323,234.560806 649.496765,228.476990 
	C649.568604,213.121246 649.581055,197.764603 649.496521,182.408981 
	C649.442810,172.664383 649.222290,162.919586 648.953613,153.178284 
	C648.905396,151.428986 648.258301,149.696213 647.887695,147.955795 
	C651.964905,137.875519 659.120850,129.997223 666.646912,122.023773 
z"/>
<path fill="#CB7EAE" opacity="1.000000" stroke="none" 
	d="
M792.961182,234.880417 
	C793.640808,238.748154 794.864868,242.612762 794.887085,246.484268 
	C794.933899,254.650848 794.157410,262.819489 794.091553,270.990265 
	C794.042847,277.033325 794.583252,283.081085 794.930786,289.479950 
	C783.988037,299.250916 771.046326,304.107513 756.420532,305.903931 
	C756.333984,289.885071 756.667053,273.937073 757.410400,257.506958 
	C772.786621,254.804626 784.509521,247.438049 792.961182,234.880417 
z"/>
<path fill="#F4A287" opacity="1.000000" stroke="none" 
	d="
M1171.358643,173.955109 
	C1170.363037,169.706436 1169.269165,165.320801 1169.080566,160.896606 
	C1168.574219,149.014008 1168.305908,137.115784 1168.239014,125.222092 
	C1168.199829,118.266335 1168.809204,111.309052 1168.950439,104.348877 
	C1168.993652,102.226425 1168.450439,100.092079 1168.088745,97.565041 
	C1178.359131,97.117401 1188.716675,97.067909 1199.537109,97.550476 
	C1200.347290,110.092873 1200.694458,122.103226 1201.041504,134.113586 
	C1194.753296,142.516174 1188.440796,150.900772 1182.186279,159.328354 
	C1178.633057,164.116119 1175.174438,168.974167 1171.358643,173.955109 
z"/>
<path fill="#E79694" opacity="1.000000" stroke="none" 
	d="
M1063.577148,228.108032 
	C1064.711792,229.772232 1066.133423,231.547668 1066.255493,233.408310 
	C1066.698242,240.160538 1066.844360,246.941498 1066.835938,253.711304 
	C1066.828369,259.774933 1066.268188,265.839813 1066.318848,271.901093 
	C1066.378052,279.006531 1066.884888,286.107147 1067.094604,293.212891 
	C1067.190918,296.475769 1067.041748,299.745941 1067.002808,303.422974 
	C1056.644043,303.881256 1046.286255,303.929352 1035.473022,303.488831 
	C1035.339111,292.478668 1035.728394,281.958069 1035.885742,271.434021 
	C1035.902954,270.286377 1034.583130,269.118774 1033.883545,267.960449 
	C1038.736816,261.326202 1043.561279,254.670639 1048.451416,248.063629 
	C1053.356201,241.436691 1058.326416,234.858154 1063.577148,228.108032 
z"/>
<path fill="#D98AA0" opacity="1.000000" stroke="none" 
	d="
M924.552856,97.094193 
	C925.096252,104.384972 925.182861,111.603394 925.289673,118.821503 
	C925.365662,123.954941 925.490051,129.087723 925.550171,134.221283 
	C925.577087,136.520508 925.495483,138.820877 925.470398,141.120819 
	C925.436218,144.257660 925.389832,147.394516 925.382996,150.531464 
	C925.372925,155.150223 925.437500,159.769562 925.384338,164.387665 
	C925.349976,167.372223 925.061462,170.354935 925.059570,173.338593 
	C925.048828,190.130386 925.024780,206.922745 925.153931,223.713760 
	C925.193115,228.812927 926.002014,233.912125 925.939453,239.004929 
	C925.798828,250.457367 925.160767,261.904388 925.066406,273.356445 
	C925.011963,279.955627 925.752869,286.557800 925.879028,293.163513 
	C925.941772,296.451538 925.426819,299.750580 925.087280,303.438934 
	C922.526123,303.833221 920.051025,303.833221 917.288696,303.833221 
	C917.288696,235.023666 917.288696,166.296204 917.288696,97.021698 
	C919.565735,97.021698 921.835266,97.021698 924.552856,97.094193 
z"/>
<path fill="#F2A089" opacity="1.000000" stroke="none" 
	d="
M1155.091797,292.430145 
	C1155.304199,290.177246 1155.975586,288.237152 1155.947998,286.307007 
	C1155.706787,269.382141 1155.199463,252.460144 1155.064331,235.534973 
	C1154.981934,225.215057 1155.415527,214.891037 1155.862793,204.260040 
	C1161.024170,210.106735 1165.945679,216.257812 1170.851929,222.421112 
	C1171.947998,223.798080 1172.990356,225.217911 1174.138062,227.406647 
	C1174.140137,237.906570 1173.906250,247.619843 1174.029663,257.328552 
	C1174.136963,265.760162 1174.882080,274.185852 1174.909790,282.615601 
	C1174.933105,289.687164 1174.327881,296.760834 1174.000854,303.833557 
	C1163.846436,306.736816 1159.480469,299.837250 1155.091797,292.430145 
z"/>
<path fill="#F4A287" opacity="1.000000" stroke="none" 
	d="
M1174.464355,303.906250 
	C1174.327881,296.760834 1174.933105,289.687164 1174.909790,282.615601 
	C1174.882080,274.185852 1174.136963,265.760162 1174.029663,257.328552 
	C1173.906250,247.619843 1174.140137,237.906570 1174.314941,227.671234 
	C1183.939453,239.825562 1193.467529,252.503952 1203.020142,265.535339 
	C1200.675171,268.998413 1200.441772,272.139618 1201.285278,276.109283 
	C1202.252319,280.660858 1201.696899,285.557495 1201.625488,290.301575 
	C1201.561646,294.548004 1201.256836,298.790833 1201.030029,303.434265 
	C1192.310547,303.881805 1183.619263,303.930359 1174.464355,303.906250 
z"/>
<path fill="#E79694" opacity="1.000000" stroke="none" 
	d="
M1064.538086,97.091774 
	C1065.323975,104.413177 1065.847412,111.659622 1065.906250,118.909843 
	C1065.955566,124.986702 1065.282227,131.067184 1065.256714,137.147446 
	C1065.226318,144.371277 1065.395264,151.604553 1065.775757,158.818039 
	C1065.979858,162.686829 1066.570679,166.469345 1063.138550,169.787811 
	C1054.636230,159.010590 1046.321533,147.915100 1038.016846,136.040924 
	C1038.350830,132.131775 1038.913940,129.004440 1038.954468,125.870323 
	C1039.078125,116.303436 1039.000732,106.733940 1039.001465,97.165459 
	C1047.359131,97.116455 1055.716797,97.067451 1064.538086,97.091774 
z"/>
<path fill="#CB7EAE" opacity="1.000000" stroke="none" 
	d="
M794.686951,112.018959 
	C794.514832,117.733337 793.843872,123.290611 793.589661,128.866898 
	C793.253662,136.235825 793.123901,143.619827 793.135010,150.996994 
	C793.142944,156.282349 793.527283,161.567123 793.408386,167.087341 
	C786.104858,156.476410 776.838257,148.739716 764.023804,145.463684 
	C764.031677,139.849167 763.902405,134.601852 764.026001,129.360489 
	C764.279236,118.627579 764.668152,107.897873 765.001221,97.166847 
	C775.884277,99.886047 785.967834,104.202286 794.686951,112.018959 
z"/>
<path fill="#C678B3" opacity="1.000000" stroke="none" 
	d="
M710.037415,162.118011 
	C709.720703,155.417587 709.147522,148.717178 709.147461,142.016754 
	C709.147400,131.953217 709.652466,121.890495 709.731018,111.825775 
	C709.764343,107.562897 709.260437,103.295822 709.000977,98.598694 
	C717.371582,96.785439 725.741882,95.404152 734.578674,94.461884 
	C735.330444,98.623260 735.782898,102.343094 735.839417,106.068932 
	C735.874207,108.361298 735.007141,110.669220 735.056274,112.959175 
	C735.286560,123.680916 735.694336,134.398834 735.858032,145.441116 
	C725.317078,148.371948 717.356750,154.742538 710.037415,162.118011 
z"/>
<path fill="#8782E0" opacity="1.000000" stroke="none" 
	d="
M170.999130,37.166878 
	C181.689560,37.119541 192.380005,37.072201 203.555878,37.456467 
	C206.931015,43.437035 209.723816,49.039154 212.732208,54.522999 
	C217.748108,63.666260 222.902039,72.733795 227.997849,81.833214 
	C217.307266,81.881531 206.616669,81.929848 195.390900,81.562897 
	C193.121704,77.768005 191.462616,74.347412 189.640076,71.016243 
	C183.457596,59.716064 177.217316,48.447510 170.999130,37.166878 
z"/>
<path fill="#C97BB0" opacity="1.000000" stroke="none" 
	d="
M736.038696,145.118118 
	C735.694336,134.398834 735.286560,123.680916 735.056274,112.959175 
	C735.007141,110.669220 735.874207,108.361298 735.839417,106.068932 
	C735.782898,102.343094 735.330444,98.623260 735.022888,94.533920 
	C744.888489,93.510933 754.641174,94.247208 764.599609,97.084000 
	C764.668152,107.897873 764.279236,118.627579 764.026001,129.360489 
	C763.902405,134.601852 764.031677,139.849167 763.630005,145.392609 
	C754.213867,142.720245 745.121155,144.162643 736.038696,145.118118 
z"/>
<path fill="#8287E3" opacity="1.000000" stroke="none" 
	d="
M170.536072,37.095951 
	C177.217316,48.447510 183.457596,59.716064 189.640076,71.016243 
	C191.462616,74.347412 193.121704,77.768005 194.927124,81.490372 
	C183.626846,82.373154 172.255173,82.913170 161.320740,83.432426 
	C155.843613,68.650780 150.606079,54.515778 145.244781,40.046722 
	C153.058151,36.081974 161.640274,37.097366 170.536072,37.095951 
z"/>
<path fill="#8C7CDD" opacity="1.000000" stroke="none" 
	d="
M228.460236,81.905624 
	C222.902039,72.733795 217.748108,63.666260 212.732208,54.522999 
	C209.723816,49.039154 206.931015,43.437035 204.019653,37.527351 
	C216.782516,37.166630 229.567032,37.166630 242.675385,37.166630 
	C242.675385,51.976654 242.675385,66.683044 242.675385,81.978035 
	C238.113068,81.978035 233.517853,81.978035 228.460236,81.905624 
z"/>
<path fill="#BE72BB" opacity="1.000000" stroke="none" 
	d="
M647.572021,148.123352 
	C648.258301,149.696213 648.905396,151.428986 648.953613,153.178284 
	C649.222290,162.919586 649.442810,172.664383 649.496521,182.408981 
	C649.581055,197.764603 649.568604,213.121246 649.496765,228.476990 
	C649.468323,234.560806 649.245117,240.647079 648.938538,246.723587 
	C648.870178,248.080154 648.079224,249.400253 647.251282,250.888184 
	C643.929199,242.531982 640.126892,234.205566 638.267517,225.465805 
	C636.470398,217.019028 636.148193,208.148621 636.110718,199.460281 
	C636.033936,181.643799 639.395691,164.443710 647.572021,148.123352 
z"/>
<path fill="#7496EB" opacity="1.000000" stroke="none" 
	d="
M50.999462,37.166935 
	C62.009777,37.235371 73.096649,35.779648 83.943390,39.014706 
	C87.035629,39.936974 87.318672,41.814507 86.772980,44.620010 
	C85.382431,51.769070 84.095131,58.945480 83.053291,66.152397 
	C82.420433,70.530281 82.338127,74.986641 81.975960,79.405083 
	C81.641304,83.487953 78.679459,83.134041 75.402184,82.534607 
	C72.069878,76.368851 69.307732,70.581612 66.276031,64.939201 
	C61.275497,55.632530 56.100769,46.419456 50.999462,37.166935 
z"/>
<path fill="#719AED" opacity="1.000000" stroke="none" 
	d="
M50.535927,37.095215 
	C56.100769,46.419456 61.275497,55.632530 66.276031,64.939201 
	C69.307732,70.581612 72.069878,76.368851 74.976158,82.461777 
	C68.304253,82.547989 61.609318,82.263466 54.451786,81.526886 
	C53.152977,78.781158 52.609520,76.322243 51.425701,74.224747 
	C47.864548,67.915085 43.896660,61.833359 40.386017,55.497280 
	C37.060760,49.495804 34.112949,43.285191 30.999142,37.166550 
	C37.356892,37.118866 43.714638,37.071178 50.535927,37.095215 
z"/>
<path fill="#6D9EEF" opacity="1.000000" stroke="none" 
	d="
M138.998764,305.833313 
	C136.954391,305.881958 134.910019,305.930573 132.431610,305.503876 
	C131.313477,302.133331 130.912918,299.134949 129.902206,296.358673 
	C117.620544,262.622467 105.295761,228.901672 92.837761,195.230301 
	C91.391930,191.322525 89.078133,187.735855 87.166740,184.000320 
	C87.118935,178.975266 87.071129,173.950195 87.426178,168.545303 
	C89.234360,170.321930 91.110977,172.305527 91.974815,174.660599 
	C106.609978,214.560516 121.138039,254.499786 135.625565,294.453644 
	C136.971832,298.166443 137.884674,302.036346 138.998764,305.833313 
z"/>
<path fill="#6E9DEE" opacity="1.000000" stroke="none" 
	d="
M30.535648,37.094761 
	C34.112949,43.285191 37.060760,49.495804 40.386017,55.497280 
	C43.896660,61.833359 47.864548,67.915085 51.425701,74.224747 
	C52.609520,76.322243 53.152977,78.781158 53.994270,81.453964 
	C47.974461,81.881897 41.949570,81.930710 35.461304,81.906326 
	C27.557308,68.723244 20.095379,55.625336 12.707222,42.485954 
	C11.920292,41.086445 11.564773,39.444363 11.003551,37.540634 
	C17.356041,37.118633 23.714098,37.070801 30.535648,37.094761 
z"/>
<path fill="#7298EC" opacity="1.000000" stroke="none" 
	d="
M152.833374,300.000702 
	C152.833374,301.757477 152.833374,303.514282 152.833374,305.977875 
	C151.222244,305.977875 149.544571,305.977875 147.408813,305.526428 
	C144.743256,298.292236 142.730408,291.438690 140.293533,284.739410 
	C131.199799,259.739532 121.950073,234.796448 112.791779,209.819977 
	C105.404953,189.674667 98.105858,169.496964 90.630814,149.384567 
	C90.013374,147.723251 88.345535,146.452347 87.165741,145.000046 
	C87.117805,140.640381 87.069870,136.280716 87.409805,131.570724 
	C89.192078,133.626923 90.966553,135.892670 91.918701,138.463013 
	C97.753067,154.213028 103.363419,170.045807 109.119087,185.825241 
	C121.883987,220.820801 134.644150,255.818314 147.556519,290.759491 
	C148.769440,294.041687 151.049026,296.929688 152.833374,300.000702 
z"/>
<path fill="#7D8CE5" opacity="1.000000" stroke="none" 
	d="
M98.998718,95.170395 
	C101.258255,96.869942 103.517792,98.569489 105.901764,100.996124 
	C106.413040,103.835823 106.502937,106.057152 107.230644,108.044983 
	C121.417389,146.797745 135.664276,185.528534 149.981201,224.233368 
	C150.504257,225.647400 151.863556,226.752090 152.833130,228.000946 
	C152.881210,232.028275 152.929291,236.055603 152.588226,240.430786 
	C151.048492,238.994141 149.531494,237.346268 148.806808,235.402954 
	C144.106644,222.798920 139.610153,210.119171 134.988220,197.485703 
	C125.572411,171.748840 116.012352,146.064056 106.743973,120.274345 
	C103.785339,112.041809 101.559723,103.545830 98.998718,95.170395 
z"/>
<path fill="#7892E8" opacity="1.000000" stroke="none" 
	d="
M152.832947,264.000732 
	C152.881195,267.034088 152.929459,270.067474 152.587585,273.438965 
	C151.112122,271.959625 149.704132,270.259979 148.991104,268.306641 
	C141.462936,247.683197 134.088928,227.003555 126.587555,206.370255 
	C114.985138,174.456619 103.356606,142.552246 91.597054,110.696396 
	C90.694809,108.252281 88.669914,106.222588 87.166840,104.000267 
	C87.119003,100.967003 87.071167,97.933731 87.414810,94.565010 
	C88.479706,95.139511 89.408966,95.954033 89.789185,96.973358 
	C99.489517,122.979370 109.214699,148.976685 118.762131,175.039017 
	C128.251602,200.943161 137.483734,226.941696 147.009338,252.832367 
	C148.447144,256.740356 150.867218,260.286957 152.832947,264.000732 
z"/>
<path fill="#8089E4" opacity="1.000000" stroke="none" 
	d="
M152.905289,227.605881 
	C151.863556,226.752090 150.504257,225.647400 149.981201,224.233368 
	C135.664276,185.528534 121.417389,146.797745 107.230644,108.044983 
	C106.502937,106.057152 106.413040,103.835823 106.034439,101.304550 
	C108.275047,102.349792 110.507401,103.813690 112.887001,105.989944 
	C116.644485,117.370094 120.128761,128.082535 123.892113,138.696030 
	C130.934372,158.556717 138.022369,178.403122 145.350647,198.159271 
	C147.374115,203.614349 150.313782,208.729568 152.833084,214.000732 
	C152.881210,218.404099 152.929337,222.807449 152.905289,227.605881 
z"/>
<path fill="#E49496" opacity="1.000000" stroke="none" 
	d="
M1038.537720,97.092308 
	C1039.000732,106.733940 1039.078125,116.303436 1038.954468,125.870323 
	C1038.913940,129.004440 1038.350830,132.131775 1037.992065,135.688126 
	C1031.981934,128.465363 1025.953735,120.857178 1020.050110,113.153534 
	C1016.234863,108.175163 1012.601929,103.057076 1008.165405,97.019157 
	C1018.784546,97.019157 1028.429199,97.019157 1038.537720,97.092308 
z"/>
<path fill="#709AED" opacity="1.000000" stroke="none" 
	d="
M87.093857,145.449585 
	C88.345535,146.452347 90.013374,147.723251 90.630814,149.384567 
	C98.105858,169.496964 105.404953,189.674667 112.791779,209.819977 
	C121.950073,234.796448 131.199799,259.739532 140.293533,284.739410 
	C142.730408,291.438690 144.743256,298.292236 146.975433,305.453979 
	C145.930649,305.881317 144.861206,305.929657 143.389526,305.515503 
	C140.078217,296.226410 137.393173,287.318115 134.213684,278.589996 
	C127.441025,259.998169 120.326431,241.531158 113.510559,222.954803 
	C106.120468,202.813431 98.968170,182.584732 91.552887,162.452789 
	C90.572617,159.791412 88.652527,157.476212 87.167694,155.000687 
	C87.119118,151.966827 87.070549,148.932983 87.093857,145.449585 
z"/>
<path fill="#7496EB" opacity="1.000000" stroke="none" 
	d="
M152.905746,299.555328 
	C151.049026,296.929688 148.769440,294.041687 147.556519,290.759491 
	C134.644150,255.818314 121.883987,220.820801 109.119087,185.825241 
	C103.363419,170.045807 97.753067,154.213028 91.918701,138.463013 
	C90.966553,135.892670 89.192078,133.626923 87.481689,131.110992 
	C87.117676,127.967834 87.069656,124.934105 87.411430,121.561859 
	C88.886185,123.038239 90.284950,124.736664 91.008209,126.685760 
	C99.448799,149.432236 107.834267,172.199478 116.142044,194.994858 
	C127.188431,225.304596 138.124268,255.654678 149.223373,285.945007 
	C149.910217,287.819489 151.606476,289.324066 152.833099,291.000763 
	C152.881439,293.703827 152.929779,296.406891 152.905746,299.555328 
z"/>
<path fill="#6E9CEE" opacity="1.000000" stroke="none" 
	d="
M87.095688,155.459045 
	C88.652527,157.476212 90.572617,159.791412 91.552887,162.452789 
	C98.968170,182.584732 106.120468,202.813431 113.510559,222.954803 
	C120.326431,241.531158 127.441025,259.998169 134.213684,278.589996 
	C137.393173,287.318115 140.078217,296.226410 142.993408,305.443054 
	C141.930023,305.881500 140.860519,305.929993 139.394897,305.905884 
	C137.884674,302.036346 136.971832,298.166443 135.625565,294.453644 
	C121.138039,254.499786 106.609978,214.560516 91.974815,174.660599 
	C91.110977,172.305527 89.234360,170.321930 87.498482,168.083435 
	C87.119843,163.973404 87.071762,159.945419 87.095688,155.459045 
z"/>
<path fill="#68A4F2" opacity="1.000000" stroke="none" 
	d="
M87.165924,214.000687 
	C87.117508,208.309738 87.069092,202.618774 87.410233,196.590576 
	C88.492966,197.539215 89.354774,198.763031 89.854393,200.120193 
	C99.620972,226.649658 109.461067,253.153107 119.011452,279.760468 
	C122.078766,288.306000 124.358665,297.134155 126.998810,305.833008 
	C125.929581,305.881531 124.860352,305.930023 123.320572,305.554626 
	C112.268730,276.267151 101.722504,247.390549 91.020409,218.571823 
	C90.367424,216.813461 88.479332,215.513779 87.165924,214.000687 
z"/>
<path fill="#E49496" opacity="1.000000" stroke="none" 
	d="
M1033.570801,268.093201 
	C1034.583130,269.118774 1035.902954,270.286377 1035.885742,271.434021 
	C1035.728394,281.958069 1035.339111,292.478668 1035.009521,303.416504 
	C1025.576660,303.832703 1016.151794,303.832703 1005.826172,303.832703 
	C1015.184753,291.685242 1024.221436,279.955597 1033.570801,268.093201 
z"/>
<path fill="#7793E9" opacity="1.000000" stroke="none" 
	d="
M87.094971,104.433380 
	C88.669914,106.222588 90.694809,108.252281 91.597054,110.696396 
	C103.356606,142.552246 114.985138,174.456619 126.587555,206.370255 
	C134.088928,227.003555 141.462936,247.683197 148.991104,268.306641 
	C149.704132,270.259979 151.112122,271.959625 152.515259,273.888306 
	C152.881271,276.702667 152.929474,279.405762 152.586273,282.440460 
	C150.435654,279.257019 148.319138,275.872986 146.975159,272.205780 
	C138.178955,248.204193 129.577545,224.131332 120.858582,200.101303 
	C111.742630,174.977158 102.621437,149.854584 93.366966,124.781364 
	C91.626915,120.067032 89.249352,115.587997 87.165970,111.000389 
	C87.118347,108.955757 87.070724,106.911118 87.094971,104.433380 
z"/>
<path fill="#F7A484" opacity="1.000000" stroke="none" 
	d="
M1201.359985,133.972549 
	C1200.694458,122.103226 1200.347290,110.092873 1200.000610,97.624466 
	C1209.561401,97.166405 1219.121704,97.166405 1229.580200,97.166405 
	C1219.989868,109.768822 1210.834106,121.800163 1201.359985,133.972549 
z"/>
<path fill="#6AA1F1" opacity="1.000000" stroke="none" 
	d="
M127.411301,305.905884 
	C124.358665,297.134155 122.078766,288.306000 119.011452,279.760468 
	C109.461067,253.153107 99.620972,226.649658 89.854393,200.120193 
	C89.354774,198.763031 88.492966,197.539215 87.482376,196.127655 
	C87.117584,192.305405 87.070198,188.608810 87.094772,184.456268 
	C89.078133,187.735855 91.391930,191.322525 92.837761,195.230301 
	C105.295761,228.901672 117.620544,262.622467 129.902206,296.358673 
	C130.912918,299.134949 131.313477,302.133331 131.998718,305.430969 
	C130.607849,305.881866 129.215820,305.930328 127.411301,305.905884 
z"/>
<path fill="#7595EA" opacity="1.000000" stroke="none" 
	d="
M87.094238,111.449890 
	C89.249352,115.587997 91.626915,120.067032 93.366966,124.781364 
	C102.621437,149.854584 111.742630,174.977158 120.858582,200.101303 
	C129.577545,224.131332 138.178955,248.204193 146.975159,272.205780 
	C148.319138,275.872986 150.435654,279.257019 152.513916,282.885742 
	C152.881241,285.373444 152.929474,287.747437 152.905396,290.561096 
	C151.606476,289.324066 149.910217,287.819489 149.223373,285.945007 
	C138.124268,255.654678 127.188431,225.304596 116.142044,194.994858 
	C107.834267,172.199478 99.448799,149.432236 91.008209,126.685760 
	C90.284950,124.736664 88.886185,123.038239 87.483253,121.112473 
	C87.117691,117.967522 87.070091,114.933449 87.094238,111.449890 
z"/>
<path fill="#7B8EE7" opacity="1.000000" stroke="none" 
	d="
M116.957253,64.887138 
	C119.989891,62.356979 125.465675,62.065723 128.000412,64.554199 
	C135.285370,71.706230 142.522903,78.909187 149.636536,86.230644 
	C150.897522,87.528481 151.473114,89.492256 152.545547,91.483307 
	C147.388321,92.667503 143.597137,92.223770 140.562729,88.148643 
	C138.215958,84.996979 135.454498,82.130676 132.673782,79.340416 
	C131.880981,78.544891 130.396515,78.359360 129.184631,78.118401 
	C128.893677,78.060532 128.424622,78.898392 128.037460,79.324310 
	C128.790634,79.923256 129.599930,80.464279 130.287750,81.130676 
	C134.336151,85.052917 138.541763,88.840332 142.266174,93.051865 
	C143.303864,94.225281 142.890228,96.682152 143.110809,98.316162 
	C135.818985,101.389763 133.511078,94.927238 129.170761,92.612183 
	C128.957443,92.985840 129.008423,93.079254 129.378021,92.816620 
	C129.458481,91.715462 129.169327,90.876945 129.082260,89.794724 
	C128.008072,86.274040 126.997940,82.859818 125.395111,79.751198 
	C122.786278,74.691437 119.790016,69.831444 116.957253,64.887138 
z"/>
<path fill="#5FACF7" opacity="1.000000" stroke="none" 
	d="
M110.997292,305.830414 
	C108.294609,305.880188 105.591934,305.929932 102.443077,305.503906 
	C101.782883,303.557892 101.797989,302.007965 101.318642,300.630066 
	C97.451637,289.513824 93.525269,278.417725 89.499825,267.358124 
	C89.156311,266.414337 87.964005,265.779510 87.165993,265.001190 
	C87.118462,257.644073 87.070938,250.286926 87.431870,242.551544 
	C88.855972,243.597488 90.231705,244.885773 90.828842,246.467926 
	C94.702110,256.730316 98.584862,266.995880 102.112274,277.380035 
	C105.306847,286.784393 108.053276,296.340973 110.997292,305.830414 
z"/>
<path fill="#7A90E8" opacity="1.000000" stroke="none" 
	d="
M152.905212,263.561127 
	C150.867218,260.286957 148.447144,256.740356 147.009338,252.832367 
	C137.483734,226.941696 128.251602,200.943161 118.762131,175.039017 
	C109.214699,148.976685 99.489517,122.979370 89.789185,96.973358 
	C89.408966,95.954033 88.479706,95.139511 87.486443,94.115601 
	C87.166603,91.848526 87.166603,89.695404 87.166603,87.071716 
	C88.433716,87.490448 89.558014,87.861984 90.858261,88.967438 
	C91.846886,92.738113 92.434212,95.857162 93.508240,98.798492 
	C101.429176,120.490692 109.510826,142.124237 117.418686,163.821152 
	C127.435699,191.305038 137.272995,218.854614 147.367081,246.309952 
	C148.630280,249.745743 150.984848,252.780319 152.833725,256.000793 
	C152.881638,258.374359 152.929550,260.747955 152.905212,263.561127 
z"/>
<path fill="#65A6F4" opacity="1.000000" stroke="none" 
	d="
M87.093651,214.460449 
	C88.479332,215.513779 90.367424,216.813461 91.020409,218.571823 
	C101.722504,247.390549 112.268730,276.267151 122.924614,305.481598 
	C121.281967,305.881104 119.564720,305.929749 117.399887,305.531372 
	C115.614647,301.158844 114.334419,297.212677 112.929733,293.311340 
	C105.671371,273.152161 98.431351,252.985931 91.018196,232.883652 
	C90.336182,231.034210 88.478783,229.618195 87.167160,228.000931 
	C87.118561,223.640701 87.069969,219.280457 87.093651,214.460449 
z"/>
<path fill="#7C8EE6" opacity="1.000000" stroke="none" 
	d="
M98.698303,95.031532 
	C101.559723,103.545830 103.785339,112.041809 106.743973,120.274345 
	C116.012352,146.064056 125.572411,171.748840 134.988220,197.485703 
	C139.610153,210.119171 144.106644,222.798920 148.806808,235.402954 
	C149.531494,237.346268 151.048492,238.994141 152.515991,240.889099 
	C152.881012,243.702469 152.929108,246.405396 152.585342,249.439453 
	C151.362625,248.384354 150.288101,247.088272 149.737137,245.598541 
	C140.152115,219.681824 130.618530,193.746017 121.101135,167.804337 
	C114.856499,150.783295 108.571579,133.776230 102.470619,116.703613 
	C99.453392,108.260353 96.811188,99.683083 93.999306,91.166451 
	C95.465500,92.408524 96.931694,93.650597 98.698303,95.031532 
z"/>
<path fill="#7793E9" opacity="1.000000" stroke="none" 
	d="
M117.959404,94.116898 
	C116.886086,93.321487 115.812759,92.526077 114.739441,91.730667 
	C114.435295,92.062576 114.131142,92.394485 113.826996,92.726395 
	C116.752876,96.135536 119.678764,99.544678 122.828819,103.215012 
	C116.086449,105.670677 113.056725,101.107750 109.325363,98.183594 
	C109.511497,96.099739 110.137047,94.217499 109.500748,92.988617 
	C105.026558,84.347664 100.381470,75.790611 95.567337,67.334076 
	C94.587288,65.612495 92.658394,64.431076 91.166901,63.000648 
	C91.706093,61.171696 92.254898,59.345516 92.782814,57.513313 
	C95.144447,49.316860 95.142296,49.316238 104.580109,50.555950 
	C103.747070,52.302830 102.553009,53.772823 102.392227,55.348274 
	C101.995819,59.232414 101.561035,63.252510 102.207062,67.036034 
	C102.474838,68.604317 105.462654,69.708168 107.678421,71.442848 
	C108.974243,73.630440 109.847061,75.380112 110.628220,77.169777 
	C113.090431,82.810745 115.518265,88.466728 117.959404,94.116898 
z"/>
<path fill="#7D8CE5" opacity="1.000000" stroke="none" 
	d="
M118.954147,47.889515 
	C125.193626,44.100067 137.119659,47.496208 142.043350,53.758781 
	C148.489304,61.957535 150.910416,71.528267 153.258209,82.425163 
	C146.788422,76.437325 141.210892,70.943130 135.257996,65.891243 
	C131.725586,62.893486 127.601463,60.592972 123.370216,57.513710 
	C121.649414,53.995483 120.301781,50.942501 118.954147,47.889515 
z"/>
<path fill="#8287E3" opacity="1.000000" stroke="none" 
	d="
M152.905151,213.547333 
	C150.313782,208.729568 147.374115,203.614349 145.350647,198.159271 
	C138.022369,178.403122 130.934372,158.556717 123.892113,138.696030 
	C120.128761,128.082535 116.644485,117.370094 113.038437,106.294067 
	C114.622673,107.015717 116.202721,108.145607 117.907928,109.983597 
	C120.606743,118.035759 123.135437,125.395935 125.762627,132.720795 
	C133.280807,153.682129 140.783127,174.649628 148.450958,195.556274 
	C149.426331,198.215668 151.348969,200.527649 152.832764,203.000580 
	C152.880920,206.365036 152.929062,209.729492 152.905151,213.547333 
z"/>
<path fill="#897FDE" opacity="1.000000" stroke="none" 
	d="
M128.999771,107.167191 
	C130.701050,107.106697 132.402344,107.046211 134.678375,107.275284 
	C139.817612,119.818092 144.306015,132.100815 149.030060,144.292236 
	C149.724442,146.084213 151.537567,147.442688 152.833069,149.001740 
	C152.881088,155.358704 152.929123,161.715652 152.585236,168.421753 
	C151.469559,167.704178 150.505005,166.728821 150.060257,165.556274 
	C146.661621,156.596344 143.294647,147.623001 140.053665,138.605026 
	C136.296814,128.151703 132.678329,117.648651 128.999771,107.167191 
z"/>
<path fill="#7B8EE7" opacity="1.000000" stroke="none" 
	d="
M93.710220,91.038177 
	C96.811188,99.683083 99.453392,108.260353 102.470619,116.703613 
	C108.571579,133.776230 114.856499,150.783295 121.101135,167.804337 
	C130.618530,193.746017 140.152115,219.681824 149.737137,245.598541 
	C150.288101,247.088272 151.362625,248.384354 152.513458,249.884766 
	C152.881638,251.716721 152.929825,253.434494 152.905869,255.576523 
	C150.984848,252.780319 148.630280,249.745743 147.367081,246.309952 
	C137.272995,218.854614 127.435699,191.305038 117.418686,163.821152 
	C109.510826,142.124237 101.429176,120.490692 93.508240,98.798492 
	C92.434212,95.857162 91.846886,92.738113 91.038406,89.293579 
	C91.835449,89.560501 92.628288,90.235199 93.710220,91.038177 
z"/>
<path fill="#63A9F5" opacity="1.000000" stroke="none" 
	d="
M87.094879,228.460693 
	C88.478783,229.618195 90.336182,231.034210 91.018196,232.883652 
	C98.431351,252.985931 105.671371,273.152161 112.929733,293.311340 
	C114.334419,297.212677 115.614647,301.158844 116.975929,305.458160 
	C115.281563,305.880585 113.563545,305.929169 111.421417,305.904083 
	C108.053276,296.340973 105.306847,286.784393 102.112274,277.380035 
	C98.584862,266.995880 94.702110,256.730316 90.828842,246.467926 
	C90.231705,244.885773 88.855972,243.597488 87.504288,242.088074 
	C87.119713,237.642044 87.071159,233.281250 87.094879,228.460693 
z"/>
<path fill="#7892E8" opacity="1.000000" stroke="none" 
	d="
M118.088974,94.423706 
	C115.518265,88.466728 113.090431,82.810745 110.628220,77.169777 
	C109.847061,75.380112 108.974243,73.630440 108.071442,71.514771 
	C112.319122,71.335823 114.589638,68.641350 116.643463,65.046371 
	C119.790016,69.831444 122.786278,74.691437 125.395111,79.751198 
	C126.997940,82.859818 128.008072,86.274040 128.775299,89.663284 
	C126.835999,88.390213 125.405754,87.004883 123.975502,85.619560 
	C123.521431,86.093819 123.067360,86.568077 122.613297,87.042336 
	C124.745003,89.054642 126.876717,91.066948 129.008423,93.079254 
	C129.008423,93.079254 128.957443,92.985840 128.918991,92.948936 
	C129.732803,94.251381 130.670471,95.545319 131.413452,96.942764 
	C132.166031,98.358238 132.726120,99.876068 133.331482,101.259819 
	C125.404488,104.322113 122.291649,98.532822 118.088974,94.423706 
z"/>
<path fill="#8485E2" opacity="1.000000" stroke="none" 
	d="
M152.904694,202.547180 
	C151.348969,200.527649 149.426331,198.215668 148.450958,195.556274 
	C140.783127,174.649628 133.280807,153.682129 125.762627,132.720795 
	C123.135437,125.395935 120.606743,118.035759 118.037613,110.288445 
	C119.100418,109.931374 120.158684,109.977554 121.613930,110.480637 
	C122.122993,111.758423 122.092186,112.631035 122.367928,113.392670 
	C130.402908,135.586548 138.381256,157.801788 146.605881,179.925400 
	C148.172592,184.139771 150.732117,187.985031 152.833588,192.000595 
	C152.881271,195.364990 152.928955,198.729385 152.904694,202.547180 
z"/>
<path fill="#5DAFF9" opacity="1.000000" stroke="none" 
	d="
M87.093437,265.464783 
	C87.964005,265.779510 89.156311,266.414337 89.499825,267.358124 
	C93.525269,278.417725 97.451637,289.513824 101.318642,300.630066 
	C101.797989,302.007965 101.782883,303.557892 101.997940,305.430420 
	C97.196007,305.832764 92.393028,305.832764 87.020874,305.832764 
	C87.020874,292.459167 87.020874,279.193787 87.093437,265.464783 
z"/>
<path fill="#8782E0" opacity="1.000000" stroke="none" 
	d="
M128.579330,107.096008 
	C132.678329,117.648651 136.296814,128.151703 140.053665,138.605026 
	C143.294647,147.623001 146.661621,156.596344 150.060257,165.556274 
	C150.505005,166.728821 151.469559,167.704178 152.513275,168.885223 
	C152.881180,173.027298 152.929138,177.055008 152.586441,181.429245 
	C151.163345,180.116959 149.804276,178.577408 149.148438,176.781113 
	C141.727646,156.455551 134.469894,136.070282 126.991287,115.766266 
	C126.199730,113.617249 124.280930,111.883423 122.885094,109.956978 
	C122.643661,105.383522 126.093925,107.449974 128.579330,107.096008 
z"/>
<path fill="#7595EA" opacity="1.000000" stroke="none" 
	d="
M91.083984,63.407341 
	C92.658394,64.431076 94.587288,65.612495 95.567337,67.334076 
	C100.381470,75.790611 105.026558,84.347664 109.500748,92.988617 
	C110.137047,94.217499 109.511497,96.099739 109.180771,97.863182 
	C103.289177,93.875443 97.795563,89.545959 92.044617,85.590637 
	C88.454514,83.121490 88.732857,79.691986 89.062408,76.288147 
	C89.467255,72.106735 90.333984,67.970055 91.083984,63.407341 
z"/>
<path fill="#8584E1" opacity="1.000000" stroke="none" 
	d="
M122.658340,109.987152 
	C124.280930,111.883423 126.199730,113.617249 126.991287,115.766266 
	C134.469894,136.070282 141.727646,156.455551 149.148438,176.781113 
	C149.804276,178.577408 151.163345,180.116959 152.514511,181.887589 
	C152.881195,185.033463 152.929169,188.067490 152.905365,191.551056 
	C150.732117,187.985031 148.172592,184.139771 146.605881,179.925400 
	C138.381256,157.801788 130.402908,135.586548 122.367928,113.392670 
	C122.092186,112.631035 122.122993,111.758423 122.005081,110.552269 
	C121.999260,110.167000 122.431587,110.017326 122.658340,109.987152 
z"/>
<path fill="#8D7BDC" opacity="1.000000" stroke="none" 
	d="
M152.905167,148.538544 
	C151.537567,147.442688 149.724442,146.084213 149.030060,144.292236 
	C144.306015,132.100815 139.817612,119.818092 135.101974,107.229141 
	C134.950836,105.788330 134.950836,104.683212 134.950836,103.024071 
	C137.134430,103.024071 139.133133,103.024071 141.571808,103.485847 
	C144.739380,112.291306 147.414261,120.653145 150.272446,128.951859 
	C150.573273,129.825272 151.953766,130.326859 152.833344,131.000946 
	C152.881317,136.692413 152.929291,142.383881 152.905167,148.538544 
z"/>
<path fill="#8F79DB" opacity="1.000000" stroke="none" 
	d="
M152.905121,130.537079 
	C151.953766,130.326859 150.573273,129.825272 150.272446,128.951859 
	C147.414261,120.653145 144.739380,112.291306 142.005295,103.557053 
	C143.139008,103.062134 144.279205,102.957787 144.866806,102.904015 
	C146.083328,100.522057 146.923004,98.301682 148.287247,96.472549 
	C148.885361,95.670639 150.864899,95.063751 151.650391,95.468430 
	C152.459274,95.885155 152.933533,97.638084 152.943466,98.811531 
	C153.031677,109.231438 152.984283,119.652481 152.905121,130.537079 
z"/>
<path fill="#7A90E8" opacity="1.000000" stroke="none" 
	d="
M118.578789,47.938332 
	C120.301781,50.942501 121.649414,53.995483 122.997757,57.440735 
	C120.403961,58.985847 117.393547,59.641907 115.300728,61.394005 
	C110.816269,65.148376 111.010361,65.380219 104.201523,64.648247 
	C105.803940,56.491096 109.614059,50.246162 118.578789,47.938332 
z"/>
<path fill="#C678B3" opacity="1.000000" stroke="none" 
	d="
M707.721008,98.133781 
	C707.786011,98.399681 707.553467,98.597488 707.082275,98.859184 
	C707.069946,98.676025 707.263184,98.390228 707.721008,98.133781 
z"/>
<path fill="#000000" opacity="1.000000" stroke="none" 
	d="
M456.882843,151.424637 
	C475.080658,141.420578 493.142273,141.466705 511.592133,151.060608 
	C521.729858,158.744400 530.045776,167.647583 533.327148,179.884262 
	C539.573120,203.176208 537.576233,225.068054 519.972168,243.333420 
	C516.547180,246.887070 511.829163,249.194504 507.426208,252.319733 
	C490.799438,259.143341 474.634369,259.341736 458.372437,251.038345 
	C440.190033,240.239868 432.582825,224.003448 431.956238,203.755798 
	C431.526733,189.876740 433.318970,176.517456 442.106079,165.337265 
	C446.170502,160.165924 451.803833,156.227661 456.882843,151.424637 
z"/>
<path fill="#000000" opacity="1.000000" stroke="none" 
	d="
M735.858032,145.441116 
	C745.121155,144.162643 754.213867,142.720245 763.607300,145.762497 
	C776.838257,148.739716 786.104858,156.476410 793.323669,167.591965 
	C798.854553,176.279984 801.815674,185.382492 802.025879,195.386429 
	C802.254028,206.242188 802.088989,217.004578 797.034973,227.007690 
	C795.808289,229.435669 794.511414,231.828232 793.104004,234.558746 
	C784.509521,247.438049 772.786621,254.804626 757.410950,257.096008 
	C748.230957,256.626617 739.201721,258.162933 730.877808,254.020264 
	C727.137634,252.158844 723.460327,250.171173 719.435425,248.101501 
	C709.356323,240.289276 702.353455,230.674484 699.889587,218.407776 
	C695.920471,198.647430 696.345886,179.498764 709.900818,162.431091 
	C717.356750,154.742538 725.317078,148.371948 735.858032,145.441116 
z"/>
<path fill="#000000" opacity="1.000000" stroke="none" 
	d="
M129.378021,92.816620 
	C126.876717,91.066948 124.745003,89.054642 122.613297,87.042336 
	C123.067360,86.568077 123.521431,86.093819 123.975502,85.619560 
	C125.405754,87.004883 126.835999,88.390213 128.573212,89.906982 
	C129.169327,90.876945 129.458481,91.715462 129.378021,92.816620 
z"/>
</svg>