<svg width="15" height="13" viewBox="0 0 15 13" fill="none" xmlns="http://www.w3.org/2000/svg">
<path d="M13.125 2.75H3.125C2.58812 2.75 2.08 2.5175 1.72813 2.12563C2.07188 1.74188 2.57125 1.5 3.125 1.5H14.375C15.1925 1.49625 15.1919 0.253125 14.375 0.25H3.125C1.39938 0.25 0 1.64938 0 3.375V9.625C0 11.3506 1.39938 12.75 3.125 12.75H13.125C14.1606 12.75 15 11.9106 15 10.875V4.625C15 3.58938 14.1606 2.75 13.125 2.75ZM12.5 8.375C11.6825 8.37125 11.6825 7.12875 12.5 7.125C13.3175 7.12875 13.3175 8.37125 12.5 8.375Z" fill="#99A1AA"/>
</svg>
