<svg width="133" height="133" viewBox="0 0 133 133" fill="none" xmlns="http://www.w3.org/2000/svg">
<mask id="path-1-inside-1_754_869" fill="white">
<path d="M12.1756 28.1449C17.9199 20.009 25.4183 13.2672 34.1171 8.41734C42.8159 3.56748 52.4929 0.73343 62.4337 0.124438C72.3745 -0.484554 82.3251 1.14707 91.5509 4.89883C100.777 8.65059 109.042 14.4267 115.736 21.8006C122.431 29.1745 127.383 37.9579 130.229 47.5023C133.074 57.0466 133.739 67.1082 132.175 76.944C130.611 86.7798 126.857 96.1387 121.192 104.33C115.526 112.521 108.093 119.334 99.4413 124.268L66.5 66.5L12.1756 28.1449Z"/>
</mask>
<path d="M12.1756 28.1449C17.9199 20.009 25.4183 13.2672 34.1171 8.41734C42.8159 3.56748 52.4929 0.73343 62.4337 0.124438C72.3745 -0.484554 82.3251 1.14707 91.5509 4.89883C100.777 8.65059 109.042 14.4267 115.736 21.8006C122.431 29.1745 127.383 37.9579 130.229 47.5023C133.074 57.0466 133.739 67.1082 132.175 76.944C130.611 86.7798 126.857 96.1387 121.192 104.33C115.526 112.521 108.093 119.334 99.4413 124.268L66.5 66.5L12.1756 28.1449Z" fill="url(#paint0_linear_754_869)" stroke="#232629" stroke-width="6" mask="url(#path-1-inside-1_754_869)"/>
<mask id="path-2-inside-2_754_869" fill="white">
<path d="M37.0511 126.124C28.4297 121.866 20.8344 115.789 14.7886 108.311C8.7429 100.834 4.39063 92.1347 2.03186 82.8129C-0.326904 73.4911 -0.63605 63.7686 1.12574 54.3158C2.88752 44.8629 6.67833 35.9046 12.2368 28.0584L66.5 66.5L37.0511 126.124Z"/>
</mask>
<path d="M37.0511 126.124C28.4297 121.866 20.8344 115.789 14.7886 108.311C8.7429 100.834 4.39063 92.1347 2.03186 82.8129C-0.326904 73.4911 -0.63605 63.7686 1.12574 54.3158C2.88752 44.8629 6.67833 35.9046 12.2368 28.0584L66.5 66.5L37.0511 126.124Z" fill="#91BEFF" stroke="#232629" stroke-width="6" mask="url(#path-2-inside-2_754_869)"/>
<mask id="path-3-inside-3_754_869" fill="white">
<path d="M99.75 124.091C90.3155 129.538 79.6873 132.583 68.7999 132.96C57.9124 133.337 47.0991 131.033 37.3106 126.251L66.5 66.5L99.75 124.091Z"/>
</mask>
<path d="M99.75 124.091C90.3155 129.538 79.6873 132.583 68.7999 132.96C57.9124 133.337 47.0991 131.033 37.3106 126.251L66.5 66.5L99.75 124.091Z" fill="#E24949" stroke="#232629" stroke-width="6" mask="url(#path-3-inside-3_754_869)"/>
<defs>
<linearGradient id="paint0_linear_754_869" x1="152.183" y1="-18.6798" x2="-45.2653" y2="114.91" gradientUnits="userSpaceOnUse">
<stop stop-color="#FFC227"/>
</linearGradient>
</defs>
</svg>
